# Approved Blender desk mesh
mtllib desk_approved.mtl
usemtl amber_lit
v 0.28009 0.90358 0.72444
vn 0.25882 0.34548 0.90203
vt 0 0
v 0.27000 0.90405 0.72568
vn -0.00000 0.35767 0.93385
vt 1 0
v 0.27000 0.86296 0.74142
vn -0.00000 0.35767 0.93385
vt 1 1
f 1/1/1 2/2/2 3/3/3
usemtl amber_lit
v 0.28009 0.90358 0.72444
vn 0.25882 0.34548 0.90203
vt 0 0
v 0.27000 0.86296 0.74142
vn -0.00000 0.35767 0.93385
vt 1 0
v 0.28009 0.86249 0.74018
vn 0.25882 0.34548 0.90203
vt 1 1
f 4/4/4 5/5/5 6/6/6
usemtl amber_lit
v 0.25991 0.90358 0.72444
vn -0.25882 0.34548 0.90203
vt 0 0
v 0.25050 0.90218 0.72080
vn -0.50000 0.30975 0.80874
vt 1 0
v 0.25050 0.86110 0.73654
vn -0.50000 0.30975 0.80874
vt 1 1
f 7/7/7 8/8/8 9/9/9
usemtl amber_lit
v 0.25991 0.90358 0.72444
vn -0.25882 0.34548 0.90203
vt 0 0
v 0.25050 0.86110 0.73654
vn -0.50000 0.30975 0.80874
vt 1 0
v 0.25991 0.86249 0.74018
vn -0.25882 0.34548 0.90203
vt 1 1
f 10/10/10 11/11/11 12/12/12
usemtl amber_lit
v 0.25050 0.90218 0.72080
vn -0.50000 0.30975 0.80874
vt 0 0
v 0.24242 0.89997 0.71502
vn -0.70711 0.25291 0.66033
vt 1 0
v 0.24242 0.85888 0.73075
vn -0.70711 0.25291 0.66033
vt 1 1
f 13/13/13 14/14/14 15/15/15
usemtl amber_lit
v 0.25050 0.90218 0.72080
vn -0.50000 0.30975 0.80874
vt 0 0
v 0.24242 0.85888 0.73075
vn -0.70711 0.25291 0.66033
vt 1 0
v 0.25050 0.86110 0.73654
vn -0.50000 0.30975 0.80874
vt 1 1
f 16/16/16 17/17/17 18/18/18
usemtl amber_lit
v 0.24242 0.89997 0.71502
vn -0.70711 0.25291 0.66033
vt 0 0
v 0.23623 0.89708 0.70747
vn -0.86603 0.17883 0.46692
vt 1 0
v 0.23623 0.85599 0.72321
vn -0.86603 0.17883 0.46692
vt 1 1
f 19/19/19 20/20/20 21/21/21
usemtl amber_lit
v 0.24242 0.89997 0.71502
vn -0.70711 0.25291 0.66033
vt 0 0
v 0.23623 0.85599 0.72321
vn -0.86603 0.17883 0.46692
vt 1 0
v 0.24242 0.85888 0.73075
vn -0.70711 0.25291 0.66033
vt 1 1
f 22/22/22 23/23/23 24/24/24
usemtl amber_lit
v 0.23623 0.89708 0.70747
vn -0.86603 0.17883 0.46692
vt 0 0
v 0.23233 0.89371 0.69869
vn -0.96593 0.09257 0.24170
vt 1 0
v 0.23233 0.85263 0.71443
vn -0.96593 0.09257 0.24170
vt 1 1
f 25/25/25 26/26/26 27/27/27
usemtl amber_lit
v 0.23623 0.89708 0.70747
vn -0.86603 0.17883 0.46692
vt 0 0
v 0.23233 0.85263 0.71443
vn -0.96593 0.09257 0.24170
vt 1 0
v 0.23623 0.85599 0.72321
vn -0.86603 0.17883 0.46692
vt 1 1
f 28/28/28 29/29/29 30/30/30
usemtl amber_lit
v 0.23233 0.89371 0.69869
vn -0.96593 0.09257 0.24170
vt 0 0
v 0.23100 0.89010 0.68926
vn -1.00000 -0.00000 0.00000
vt 1 0
v 0.23100 0.84901 0.70500
vn -1.00000 -0.00000 0.00000
vt 1 1
f 31/31/31 32/32/32 33/33/33
usemtl amber_lit
v 0.23233 0.89371 0.69869
vn -0.96593 0.09257 0.24170
vt 0 0
v 0.23100 0.84901 0.70500
vn -1.00000 -0.00000 0.00000
vt 1 0
v 0.23233 0.85263 0.71443
vn -0.96593 0.09257 0.24170
vt 1 1
f 34/34/34 35/35/35 36/36/36
usemtl amber_lit
v 0.23100 0.89010 0.68926
vn -1.00000 -0.00000 0.00000
vt 0 0
v 0.23233 0.88649 0.67984
vn -0.96593 -0.09257 -0.24170
vt 1 0
v 0.23233 0.84540 0.69557
vn -0.96593 -0.09257 -0.24170
vt 1 1
f 37/37/37 38/38/38 39/39/39
usemtl amber_lit
v 0.23100 0.89010 0.68926
vn -1.00000 -0.00000 0.00000
vt 0 0
v 0.23233 0.84540 0.69557
vn -0.96593 -0.09257 -0.24170
vt 1 0
v 0.23100 0.84901 0.70500
vn -1.00000 -0.00000 0.00000
vt 1 1
f 40/40/40 41/41/41 42/42/42
usemtl amber_lit
v 0.23233 0.88649 0.67984
vn -0.96593 -0.09257 -0.24170
vt 0 0
v 0.23623 0.88313 0.67105
vn -0.86602 -0.17883 -0.46693
vt 1 0
v 0.23623 0.84204 0.68679
vn -0.86602 -0.17883 -0.46693
vt 1 1
f 43/43/43 44/44/44 45/45/45
usemtl amber_lit
v 0.23233 0.88649 0.67984
vn -0.96593 -0.09257 -0.24170
vt 0 0
v 0.23623 0.84204 0.68679
vn -0.86602 -0.17883 -0.46693
vt 1 0
v 0.23233 0.84540 0.69557
vn -0.96593 -0.09257 -0.24170
vt 1 1
f 46/46/46 47/47/47 48/48/48
usemtl amber_lit
v 0.23623 0.88313 0.67105
vn -0.86602 -0.17883 -0.46693
vt 0 0
v 0.24242 0.88024 0.66351
vn -0.70711 -0.25291 -0.66033
vt 1 0
v 0.24242 0.83915 0.67925
vn -0.70711 -0.25291 -0.66033
vt 1 1
f 49/49/49 50/50/50 51/51/51
usemtl amber_lit
v 0.23623 0.88313 0.67105
vn -0.86602 -0.17883 -0.46693
vt 0 0
v 0.24242 0.83915 0.67925
vn -0.70711 -0.25291 -0.66033
vt 1 0
v 0.23623 0.84204 0.68679
vn -0.86602 -0.17883 -0.46693
vt 1 1
f 52/52/52 53/53/53 54/54/54
usemtl amber_lit
v 0.24242 0.88024 0.66351
vn -0.70711 -0.25291 -0.66033
vt 0 0
v 0.25050 0.87802 0.65772
vn -0.50000 -0.30975 -0.80874
vt 1 0
v 0.25050 0.83693 0.67346
vn -0.50000 -0.30975 -0.80874
vt 1 1
f 55/55/55 56/56/56 57/57/57
usemtl amber_lit
v 0.24242 0.88024 0.66351
vn -0.70711 -0.25291 -0.66033
vt 0 0
v 0.25050 0.83693 0.67346
vn -0.50000 -0.30975 -0.80874
vt 1 0
v 0.24242 0.83915 0.67925
vn -0.70711 -0.25291 -0.66033
vt 1 1
f 58/58/58 59/59/59 60/60/60
usemtl amber_lit
v 0.25050 0.87802 0.65772
vn -0.50000 -0.30975 -0.80874
vt 0 0
v 0.25991 0.87663 0.65408
vn -0.25882 -0.34548 -0.90203
vt 1 0
v 0.25991 0.83554 0.66982
vn -0.25882 -0.34548 -0.90203
vt 1 1
f 61/61/61 62/62/62 63/63/63
usemtl amber_lit
v 0.25050 0.87802 0.65772
vn -0.50000 -0.30975 -0.80874
vt 0 0
v 0.25991 0.83554 0.66982
vn -0.25882 -0.34548 -0.90203
vt 1 0
v 0.25050 0.83693 0.67346
vn -0.50000 -0.30975 -0.80874
vt 1 1
f 64/64/64 65/65/65 66/66/66
usemtl amber_lit
v 0.25991 0.87663 0.65408
vn -0.25882 -0.34548 -0.90203
vt 0 0
v 0.27000 0.87616 0.65284
vn 0.00000 -0.35767 -0.93385
vt 1 0
v 0.27000 0.83507 0.66858
vn 0.00000 -0.35767 -0.93385
vt 1 1
f 67/67/67 68/68/68 69/69/69
usemtl amber_lit
v 0.25991 0.87663 0.65408
vn -0.25882 -0.34548 -0.90203
vt 0 0
v 0.27000 0.83507 0.66858
vn 0.00000 -0.35767 -0.93385
vt 1 0
v 0.25991 0.83554 0.66982
vn -0.25882 -0.34548 -0.90203
vt 1 1
f 70/70/70 71/71/71 72/72/72
usemtl amber_lit
v 0.27000 0.87616 0.65284
vn 0.00000 -0.35767 -0.93385
vt 0 0
v 0.28009 0.87663 0.65408
vn 0.25882 -0.34548 -0.90203
vt 1 0
v 0.28009 0.83554 0.66982
vn 0.25882 -0.34548 -0.90203
vt 1 1
f 73/73/73 74/74/74 75/75/75
usemtl amber_lit
v 0.27000 0.87616 0.65284
vn 0.00000 -0.35767 -0.93385
vt 0 0
v 0.28009 0.83554 0.66982
vn 0.25882 -0.34548 -0.90203
vt 1 0
v 0.27000 0.83507 0.66858
vn 0.00000 -0.35767 -0.93385
vt 1 1
f 76/76/76 77/77/77 78/78/78
usemtl amber_lit
v 0.28009 0.87663 0.65408
vn 0.25882 -0.34548 -0.90203
vt 0 0
v 0.28950 0.87802 0.65772
vn 0.50000 -0.30975 -0.80874
vt 1 0
v 0.28950 0.83693 0.67346
vn 0.50000 -0.30975 -0.80874
vt 1 1
f 79/79/79 80/80/80 81/81/81
usemtl amber_lit
v 0.28009 0.87663 0.65408
vn 0.25882 -0.34548 -0.90203
vt 0 0
v 0.28950 0.83693 0.67346
vn 0.50000 -0.30975 -0.80874
vt 1 0
v 0.28009 0.83554 0.66982
vn 0.25882 -0.34548 -0.90203
vt 1 1
f 82/82/82 83/83/83 84/84/84
usemtl amber_lit
v 0.28950 0.87802 0.65772
vn 0.50000 -0.30975 -0.80874
vt 0 0
v 0.29758 0.88024 0.66351
vn 0.70711 -0.25291 -0.66033
vt 1 0
v 0.29758 0.83915 0.67925
vn 0.70711 -0.25291 -0.66033
vt 1 1
f 85/85/85 86/86/86 87/87/87
usemtl amber_lit
v 0.28950 0.87802 0.65772
vn 0.50000 -0.30975 -0.80874
vt 0 0
v 0.29758 0.83915 0.67925
vn 0.70711 -0.25291 -0.66033
vt 1 0
v 0.28950 0.83693 0.67346
vn 0.50000 -0.30975 -0.80874
vt 1 1
f 88/88/88 89/89/89 90/90/90
usemtl amber_lit
v 0.29758 0.88024 0.66351
vn 0.70711 -0.25291 -0.66033
vt 0 0
v 0.30377 0.88313 0.67105
vn 0.86603 -0.17883 -0.46692
vt 1 0
v 0.30377 0.84204 0.68679
vn 0.86603 -0.17883 -0.46692
vt 1 1
f 91/91/91 92/92/92 93/93/93
usemtl amber_lit
v 0.29758 0.88024 0.66351
vn 0.70711 -0.25291 -0.66033
vt 0 0
v 0.30377 0.84204 0.68679
vn 0.86603 -0.17883 -0.46692
vt 1 0
v 0.29758 0.83915 0.67925
vn 0.70711 -0.25291 -0.66033
vt 1 1
f 94/94/94 95/95/95 96/96/96
usemtl amber_lit
v 0.30377 0.88313 0.67105
vn 0.86603 -0.17883 -0.46692
vt 0 0
v 0.30767 0.88649 0.67984
vn 0.96593 -0.09257 -0.24170
vt 1 0
v 0.30767 0.84540 0.69557
vn 0.96593 -0.09257 -0.24170
vt 1 1
f 97/97/97 98/98/98 99/99/99
usemtl amber_lit
v 0.30377 0.88313 0.67105
vn 0.86603 -0.17883 -0.46692
vt 0 0
v 0.30767 0.84540 0.69557
vn 0.96593 -0.09257 -0.24170
vt 1 0
v 0.30377 0.84204 0.68679
vn 0.86603 -0.17883 -0.46692
vt 1 1
f 100/100/100 101/101/101 102/102/102
usemtl amber_lit
v 0.30767 0.88649 0.67984
vn 0.96593 -0.09257 -0.24170
vt 0 0
v 0.30900 0.89010 0.68926
vn 1.00000 0.00000 -0.00000
vt 1 0
v 0.30900 0.84901 0.70500
vn 1.00000 -0.00000 -0.00000
vt 1 1
f 103/103/103 104/104/104 105/105/105
usemtl amber_lit
v 0.30767 0.88649 0.67984
vn 0.96593 -0.09257 -0.24170
vt 0 0
v 0.30900 0.84901 0.70500
vn 1.00000 -0.00000 -0.00000
vt 1 0
v 0.30767 0.84540 0.69557
vn 0.96593 -0.09257 -0.24170
vt 1 1
f 106/106/106 107/107/107 108/108/108
usemtl amber_lit
v 0.30900 0.89010 0.68926
vn 1.00000 0.00000 -0.00000
vt 0 0
v 0.30767 0.89371 0.69869
vn 0.96593 0.09257 0.24170
vt 1 0
v 0.30767 0.85263 0.71443
vn 0.96593 0.09257 0.24170
vt 1 1
f 109/109/109 110/110/110 111/111/111
usemtl amber_lit
v 0.30900 0.89010 0.68926
vn 1.00000 0.00000 -0.00000
vt 0 0
v 0.30767 0.85263 0.71443
vn 0.96593 0.09257 0.24170
vt 1 0
v 0.30900 0.84901 0.70500
vn 1.00000 -0.00000 -0.00000
vt 1 1
f 112/112/112 113/113/113 114/114/114
usemtl amber_lit
v 0.30767 0.89371 0.69869
vn 0.96593 0.09257 0.24170
vt 0 0
v 0.30377 0.89708 0.70747
vn 0.86602 0.17883 0.46693
vt 1 0
v 0.30377 0.85599 0.72321
vn 0.86602 0.17883 0.46693
vt 1 1
f 115/115/115 116/116/116 117/117/117
usemtl amber_lit
v 0.30767 0.89371 0.69869
vn 0.96593 0.09257 0.24170
vt 0 0
v 0.30377 0.85599 0.72321
vn 0.86602 0.17883 0.46693
vt 1 0
v 0.30767 0.85263 0.71443
vn 0.96593 0.09257 0.24170
vt 1 1
f 118/118/118 119/119/119 120/120/120
usemtl amber_lit
v 0.30377 0.89708 0.70747
vn 0.86602 0.17883 0.46693
vt 0 0
v 0.29758 0.89997 0.71502
vn 0.70711 0.25291 0.66033
vt 1 0
v 0.29758 0.85888 0.73075
vn 0.70711 0.25291 0.66033
vt 1 1
f 121/121/121 122/122/122 123/123/123
usemtl amber_lit
v 0.30377 0.89708 0.70747
vn 0.86602 0.17883 0.46693
vt 0 0
v 0.29758 0.85888 0.73075
vn 0.70711 0.25291 0.66033
vt 1 0
v 0.30377 0.85599 0.72321
vn 0.86602 0.17883 0.46693
vt 1 1
f 124/124/124 125/125/125 126/126/126
usemtl amber_lit
v 0.29758 0.89997 0.71502
vn 0.70711 0.25291 0.66033
vt 0 0
v 0.28950 0.90218 0.72080
vn 0.50000 0.30975 0.80874
vt 1 0
v 0.28950 0.86110 0.73654
vn 0.50000 0.30975 0.80874
vt 1 1
f 127/127/127 128/128/128 129/129/129
usemtl amber_lit
v 0.29758 0.89997 0.71502
vn 0.70711 0.25291 0.66033
vt 0 0
v 0.28950 0.86110 0.73654
vn 0.50000 0.30975 0.80874
vt 1 0
v 0.29758 0.85888 0.73075
vn 0.70711 0.25291 0.66033
vt 1 1
f 130/130/130 131/131/131 132/132/132
usemtl amber_lit
v 0.25991 0.90358 0.72444
vn 0.00000 0.93385 -0.35766
vt 0 0
v 0.27000 0.90405 0.72568
vn 0.00000 0.93385 -0.35766
vt 1 0
v 0.28009 0.90358 0.72444
vn 0.00000 0.93385 -0.35766
vt 1 1
f 133/133/133 134/134/134 135/135/135
usemtl amber_lit
v 0.28009 0.90358 0.72444
vn 0.00000 0.93385 -0.35766
vt 0 0
v 0.28950 0.90218 0.72080
vn 0.00000 0.93385 -0.35766
vt 1 0
v 0.29758 0.89997 0.71502
vn 0.00000 0.93385 -0.35766
vt 1 1
f 136/136/136 137/137/137 138/138/138
usemtl amber_lit
v 0.29758 0.89997 0.71502
vn 0.00000 0.93385 -0.35766
vt 0 0
v 0.30377 0.89708 0.70747
vn 0.00000 0.93385 -0.35766
vt 1 0
v 0.30767 0.89371 0.69869
vn 0.00000 0.93385 -0.35766
vt 1 1
f 139/139/139 140/140/140 141/141/141
usemtl amber_lit
v 0.30767 0.89371 0.69869
vn 0.00000 0.93385 -0.35766
vt 0 0
v 0.30900 0.89010 0.68926
vn 0.00000 0.93385 -0.35766
vt 1 0
v 0.30767 0.88649 0.67984
vn 0.00000 0.93385 -0.35766
vt 1 1
f 142/142/142 143/143/143 144/144/144
usemtl amber_lit
v 0.30767 0.88649 0.67984
vn 0.00000 0.93385 -0.35766
vt 0 0
v 0.30377 0.88313 0.67105
vn 0.00000 0.93385 -0.35766
vt 1 0
v 0.29758 0.88024 0.66351
vn 0.00000 0.93385 -0.35766
vt 1 1
f 145/145/145 146/146/146 147/147/147
usemtl amber_lit
v 0.29758 0.88024 0.66351
vn 0.00000 0.93385 -0.35766
vt 0 0
v 0.28950 0.87802 0.65772
vn 0.00000 0.93385 -0.35766
vt 1 0
v 0.28009 0.87663 0.65408
vn 0.00000 0.93385 -0.35766
vt 1 1
f 148/148/148 149/149/149 150/150/150
usemtl amber_lit
v 0.28009 0.87663 0.65408
vn 0.00000 0.93385 -0.35766
vt 0 0
v 0.27000 0.87616 0.65284
vn 0.00000 0.93385 -0.35766
vt 1 0
v 0.25991 0.87663 0.65408
vn 0.00000 0.93385 -0.35766
vt 1 1
f 151/151/151 152/152/152 153/153/153
usemtl amber_lit
v 0.25991 0.87663 0.65408
vn 0.00000 0.93385 -0.35766
vt 0 0
v 0.25050 0.87802 0.65772
vn 0.00000 0.93385 -0.35766
vt 1 0
v 0.24242 0.88024 0.66351
vn 0.00000 0.93385 -0.35766
vt 1 1
f 154/154/154 155/155/155 156/156/156
usemtl amber_lit
v 0.24242 0.88024 0.66351
vn 0.00000 0.93385 -0.35766
vt 0 0
v 0.23623 0.88313 0.67105
vn 0.00000 0.93385 -0.35766
vt 1 0
v 0.23233 0.88649 0.67984
vn 0.00000 0.93385 -0.35766
vt 1 1
f 157/157/157 158/158/158 159/159/159
usemtl amber_lit
v 0.23233 0.88649 0.67984
vn 0.00000 0.93385 -0.35766
vt 0 0
v 0.23100 0.89010 0.68926
vn 0.00000 0.93385 -0.35766
vt 1 0
v 0.23233 0.89371 0.69869
vn 0.00000 0.93385 -0.35766
vt 1 1
f 160/160/160 161/161/161 162/162/162
usemtl amber_lit
v 0.23233 0.89371 0.69869
vn 0.00000 0.93385 -0.35766
vt 0 0
v 0.23623 0.89708 0.70747
vn 0.00000 0.93385 -0.35766
vt 1 0
v 0.24242 0.89997 0.71502
vn 0.00000 0.93385 -0.35766
vt 1 1
f 163/163/163 164/164/164 165/165/165
usemtl amber_lit
v 0.24242 0.89997 0.71502
vn 0.00000 0.93385 -0.35766
vt 0 0
v 0.25050 0.90218 0.72080
vn 0.00000 0.93385 -0.35766
vt 1 0
v 0.25991 0.90358 0.72444
vn 0.00000 0.93385 -0.35766
vt 1 1
f 166/166/166 167/167/167 168/168/168
usemtl amber_lit
v 0.25991 0.90358 0.72444
vn 0.00000 0.93385 -0.35766
vt 0 0
v 0.28009 0.90358 0.72444
vn 0.00000 0.93385 -0.35766
vt 1 0
v 0.29758 0.89997 0.71502
vn 0.00000 0.93385 -0.35766
vt 1 1
f 169/169/169 170/170/170 171/171/171
usemtl amber_lit
v 0.29758 0.89997 0.71502
vn 0.00000 0.93385 -0.35766
vt 0 0
v 0.30767 0.89371 0.69869
vn 0.00000 0.93385 -0.35766
vt 1 0
v 0.30767 0.88649 0.67984
vn 0.00000 0.93385 -0.35766
vt 1 1
f 172/172/172 173/173/173 174/174/174
usemtl amber_lit
v 0.30767 0.88649 0.67984
vn 0.00000 0.93385 -0.35766
vt 0 0
v 0.29758 0.88024 0.66351
vn 0.00000 0.93385 -0.35766
vt 1 0
v 0.28009 0.87663 0.65408
vn 0.00000 0.93385 -0.35766
vt 1 1
f 175/175/175 176/176/176 177/177/177
usemtl amber_lit
v 0.28009 0.87663 0.65408
vn 0.00000 0.93385 -0.35766
vt 0 0
v 0.25991 0.87663 0.65408
vn 0.00000 0.93385 -0.35766
vt 1 0
v 0.24242 0.88024 0.66351
vn 0.00000 0.93385 -0.35766
vt 1 1
f 178/178/178 179/179/179 180/180/180
usemtl amber_lit
v 0.24242 0.88024 0.66351
vn 0.00000 0.93385 -0.35766
vt 0 0
v 0.23233 0.88649 0.67984
vn 0.00000 0.93385 -0.35766
vt 1 0
v 0.23233 0.89371 0.69869
vn 0.00000 0.93385 -0.35766
vt 1 1
f 181/181/181 182/182/182 183/183/183
usemtl amber_lit
v 0.23233 0.89371 0.69869
vn 0.00000 0.93385 -0.35766
vt 0 0
v 0.24242 0.89997 0.71502
vn 0.00000 0.93385 -0.35766
vt 1 0
v 0.25991 0.90358 0.72444
vn 0.00000 0.93385 -0.35766
vt 1 1
f 184/184/184 185/185/185 186/186/186
usemtl amber_lit
v 0.25991 0.90358 0.72444
vn 0.00000 0.93385 -0.35766
vt 0 0
v 0.29758 0.89997 0.71502
vn 0.00000 0.93385 -0.35766
vt 1 0
v 0.30767 0.88649 0.67984
vn 0.00000 0.93385 -0.35766
vt 1 1
f 187/187/187 188/188/188 189/189/189
usemtl amber_lit
v 0.30767 0.88649 0.67984
vn 0.00000 0.93385 -0.35766
vt 0 0
v 0.28009 0.87663 0.65408
vn 0.00000 0.93385 -0.35766
vt 1 0
v 0.24242 0.88024 0.66351
vn 0.00000 0.93385 -0.35766
vt 1 1
f 190/190/190 191/191/191 192/192/192
usemtl amber_lit
v 0.24242 0.88024 0.66351
vn 0.00000 0.93385 -0.35766
vt 0 0
v 0.23233 0.89371 0.69869
vn 0.00000 0.93385 -0.35766
vt 1 0
v 0.25991 0.90358 0.72444
vn 0.00000 0.93385 -0.35766
vt 1 1
f 193/193/193 194/194/194 195/195/195
usemtl amber_lit
v 0.30767 0.88649 0.67984
vn 0.00000 0.93385 -0.35766
vt 0 0
v 0.24242 0.88024 0.66351
vn 0.00000 0.93385 -0.35766
vt 1 0
v 0.25991 0.90358 0.72444
vn 0.00000 0.93385 -0.35766
vt 1 1
f 196/196/196 197/197/197 198/198/198
usemtl amber_lit
v 0.28950 0.90218 0.72080
vn 0.50000 0.30975 0.80874
vt 0 0
v 0.28009 0.90358 0.72444
vn 0.25882 0.34548 0.90203
vt 1 0
v 0.28009 0.86249 0.74018
vn 0.25882 0.34548 0.90203
vt 1 1
f 199/199/199 200/200/200 201/201/201
usemtl amber_lit
v 0.28950 0.90218 0.72080
vn 0.50000 0.30975 0.80874
vt 0 0
v 0.28009 0.86249 0.74018
vn 0.25882 0.34548 0.90203
vt 1 0
v 0.28950 0.86110 0.73654
vn 0.50000 0.30975 0.80874
vt 1 1
f 202/202/202 203/203/203 204/204/204
usemtl amber_lit
v 0.28009 0.86249 0.74018
vn -0.00000 -0.93385 0.35766
vt 0 0
v 0.27000 0.86296 0.74142
vn -0.00000 -0.93385 0.35766
vt 1 0
v 0.25991 0.86249 0.74018
vn -0.00000 -0.93385 0.35766
vt 1 1
f 205/205/205 206/206/206 207/207/207
usemtl amber_lit
v 0.25991 0.86249 0.74018
vn -0.00000 -0.93385 0.35766
vt 0 0
v 0.25050 0.86110 0.73654
vn -0.00000 -0.93385 0.35766
vt 1 0
v 0.24242 0.85888 0.73075
vn -0.00000 -0.93385 0.35766
vt 1 1
f 208/208/208 209/209/209 210/210/210
usemtl amber_lit
v 0.24242 0.85888 0.73075
vn -0.00000 -0.93385 0.35766
vt 0 0
v 0.23623 0.85599 0.72321
vn -0.00000 -0.93385 0.35766
vt 1 0
v 0.23233 0.85263 0.71443
vn -0.00000 -0.93385 0.35766
vt 1 1
f 211/211/211 212/212/212 213/213/213
usemtl amber_lit
v 0.23233 0.85263 0.71443
vn -0.00000 -0.93385 0.35766
vt 0 0
v 0.23100 0.84901 0.70500
vn -0.00000 -0.93385 0.35766
vt 1 0
v 0.23233 0.84540 0.69557
vn -0.00000 -0.93385 0.35766
vt 1 1
f 214/214/214 215/215/215 216/216/216
usemtl amber_lit
v 0.23233 0.84540 0.69557
vn -0.00000 -0.93385 0.35766
vt 0 0
v 0.23623 0.84204 0.68679
vn -0.00000 -0.93385 0.35766
vt 1 0
v 0.24242 0.83915 0.67925
vn -0.00000 -0.93385 0.35766
vt 1 1
f 217/217/217 218/218/218 219/219/219
usemtl amber_lit
v 0.24242 0.83915 0.67925
vn -0.00000 -0.93385 0.35766
vt 0 0
v 0.25050 0.83693 0.67346
vn -0.00000 -0.93385 0.35766
vt 1 0
v 0.25991 0.83554 0.66982
vn -0.00000 -0.93385 0.35766
vt 1 1
f 220/220/220 221/221/221 222/222/222
usemtl amber_lit
v 0.25991 0.83554 0.66982
vn -0.00000 -0.93385 0.35766
vt 0 0
v 0.27000 0.83507 0.66858
vn -0.00000 -0.93385 0.35766
vt 1 0
v 0.28009 0.83554 0.66982
vn -0.00000 -0.93385 0.35766
vt 1 1
f 223/223/223 224/224/224 225/225/225
usemtl amber_lit
v 0.28009 0.83554 0.66982
vn -0.00000 -0.93385 0.35766
vt 0 0
v 0.28950 0.83693 0.67346
vn -0.00000 -0.93385 0.35766
vt 1 0
v 0.29758 0.83915 0.67925
vn -0.00000 -0.93385 0.35766
vt 1 1
f 226/226/226 227/227/227 228/228/228
usemtl amber_lit
v 0.29758 0.83915 0.67925
vn -0.00000 -0.93385 0.35766
vt 0 0
v 0.30377 0.84204 0.68679
vn -0.00000 -0.93385 0.35766
vt 1 0
v 0.30767 0.84540 0.69557
vn -0.00000 -0.93385 0.35766
vt 1 1
f 229/229/229 230/230/230 231/231/231
usemtl amber_lit
v 0.30767 0.84540 0.69557
vn -0.00000 -0.93385 0.35766
vt 0 0
v 0.30900 0.84901 0.70500
vn -0.00000 -0.93385 0.35766
vt 1 0
v 0.30767 0.85263 0.71443
vn -0.00000 -0.93385 0.35766
vt 1 1
f 232/232/232 233/233/233 234/234/234
usemtl amber_lit
v 0.30767 0.85263 0.71443
vn -0.00000 -0.93385 0.35766
vt 0 0
v 0.30377 0.85599 0.72321
vn -0.00000 -0.93385 0.35766
vt 1 0
v 0.29758 0.85888 0.73075
vn -0.00000 -0.93385 0.35766
vt 1 1
f 235/235/235 236/236/236 237/237/237
usemtl amber_lit
v 0.29758 0.85888 0.73075
vn -0.00000 -0.93385 0.35766
vt 0 0
v 0.28950 0.86110 0.73654
vn -0.00000 -0.93385 0.35766
vt 1 0
v 0.28009 0.86249 0.74018
vn -0.00000 -0.93385 0.35766
vt 1 1
f 238/238/238 239/239/239 240/240/240
usemtl amber_lit
v 0.28009 0.86249 0.74018
vn -0.00000 -0.93385 0.35766
vt 0 0
v 0.25991 0.86249 0.74018
vn -0.00000 -0.93385 0.35766
vt 1 0
v 0.24242 0.85888 0.73075
vn -0.00000 -0.93385 0.35766
vt 1 1
f 241/241/241 242/242/242 243/243/243
usemtl amber_lit
v 0.24242 0.85888 0.73075
vn -0.00000 -0.93385 0.35766
vt 0 0
v 0.23233 0.85263 0.71443
vn -0.00000 -0.93385 0.35766
vt 1 0
v 0.23233 0.84540 0.69557
vn -0.00000 -0.93385 0.35766
vt 1 1
f 244/244/244 245/245/245 246/246/246
usemtl amber_lit
v 0.23233 0.84540 0.69557
vn -0.00000 -0.93385 0.35766
vt 0 0
v 0.24242 0.83915 0.67925
vn -0.00000 -0.93385 0.35766
vt 1 0
v 0.25991 0.83554 0.66982
vn -0.00000 -0.93385 0.35766
vt 1 1
f 247/247/247 248/248/248 249/249/249
usemtl amber_lit
v 0.25991 0.83554 0.66982
vn -0.00000 -0.93385 0.35766
vt 0 0
v 0.28009 0.83554 0.66982
vn -0.00000 -0.93385 0.35766
vt 1 0
v 0.29758 0.83915 0.67925
vn -0.00000 -0.93385 0.35766
vt 1 1
f 250/250/250 251/251/251 252/252/252
usemtl amber_lit
v 0.29758 0.83915 0.67925
vn -0.00000 -0.93385 0.35766
vt 0 0
v 0.30767 0.84540 0.69557
vn -0.00000 -0.93385 0.35766
vt 1 0
v 0.30767 0.85263 0.71443
vn -0.00000 -0.93385 0.35766
vt 1 1
f 253/253/253 254/254/254 255/255/255
usemtl amber_lit
v 0.30767 0.85263 0.71443
vn -0.00000 -0.93385 0.35766
vt 0 0
v 0.29758 0.85888 0.73075
vn -0.00000 -0.93385 0.35766
vt 1 0
v 0.28009 0.86249 0.74018
vn -0.00000 -0.93385 0.35766
vt 1 1
f 256/256/256 257/257/257 258/258/258
usemtl amber_lit
v 0.28009 0.86249 0.74018
vn -0.00000 -0.93385 0.35766
vt 0 0
v 0.24242 0.85888 0.73075
vn -0.00000 -0.93385 0.35766
vt 1 0
v 0.23233 0.84540 0.69557
vn -0.00000 -0.93385 0.35766
vt 1 1
f 259/259/259 260/260/260 261/261/261
usemtl amber_lit
v 0.23233 0.84540 0.69557
vn -0.00000 -0.93385 0.35766
vt 0 0
v 0.25991 0.83554 0.66982
vn -0.00000 -0.93385 0.35766
vt 1 0
v 0.29758 0.83915 0.67925
vn -0.00000 -0.93385 0.35766
vt 1 1
f 262/262/262 263/263/263 264/264/264
usemtl amber_lit
v 0.29758 0.83915 0.67925
vn -0.00000 -0.93385 0.35766
vt 0 0
v 0.30767 0.85263 0.71443
vn -0.00000 -0.93385 0.35766
vt 1 0
v 0.28009 0.86249 0.74018
vn -0.00000 -0.93385 0.35766
vt 1 1
f 265/265/265 266/266/266 267/267/267
usemtl amber_lit
v 0.23233 0.84540 0.69557
vn -0.00000 -0.93385 0.35766
vt 0 0
v 0.29758 0.83915 0.67925
vn -0.00000 -0.93385 0.35766
vt 1 0
v 0.28009 0.86249 0.74018
vn -0.00000 -0.93385 0.35766
vt 1 1
f 268/268/268 269/269/269 270/270/270
usemtl amber_lit
v 0.27000 0.90405 0.72568
vn -0.00000 0.35767 0.93385
vt 0 0
v 0.25991 0.90358 0.72444
vn -0.25882 0.34548 0.90203
vt 1 0
v 0.25991 0.86249 0.74018
vn -0.25882 0.34548 0.90203
vt 1 1
f 271/271/271 272/272/272 273/273/273
usemtl amber_lit
v 0.27000 0.90405 0.72568
vn -0.00000 0.35767 0.93385
vt 0 0
v 0.25991 0.86249 0.74018
vn -0.25882 0.34548 0.90203
vt 1 0
v 0.27000 0.86296 0.74142
vn -0.00000 0.35767 0.93385
vt 1 1
f 274/274/274 275/275/275 276/276/276
