# Approved Blender desk mesh
mtllib desk_approved.mtl
usemtl rubber
v 0.52972 0.83164 0.52344
vn -0.70711 0.25291 0.66033
vt 0 0
v 0.52972 0.89515 0.49912
vn -0.70711 0.25291 0.66033
vt 1 0
v 0.42365 0.85721 0.40007
vn -0.70711 0.25291 0.66033
vt 1 1
f 1/1/1 2/2/2 3/3/3
usemtl rubber
v 0.52972 0.83164 0.52344
vn -0.70711 0.25291 0.66033
vt 0 0
v 0.42365 0.85721 0.40007
vn -0.70711 0.25291 0.66033
vt 1 0
v 0.42365 0.79371 0.42439
vn -0.70711 0.25291 0.66033
vt 1 1
f 4/4/4 5/5/5 6/6/6
usemtl rubber
v 0.42365 0.79371 0.42439
vn -0.70711 -0.25291 -0.66033
vt 0 0
v 0.42365 0.85721 0.40007
vn -0.70711 -0.25291 -0.66033
vt 1 0
v 0.45194 0.84709 0.37366
vn -0.70711 -0.25291 -0.66033
vt 1 1
f 7/7/7 8/8/8 9/9/9
usemtl rubber
v 0.42365 0.79371 0.42439
vn -0.70711 -0.25291 -0.66033
vt 0 0
v 0.45194 0.84709 0.37366
vn -0.70711 -0.25291 -0.66033
vt 1 0
v 0.45194 0.78359 0.39798
vn -0.70711 -0.25291 -0.66033
vt 1 1
f 10/10/10 11/11/11 12/12/12
usemtl rubber
v 0.45194 0.78359 0.39798
vn 0.70711 -0.25291 -0.66033
vt 0 0
v 0.45194 0.84709 0.37366
vn 0.70711 -0.25291 -0.66033
vt 1 0
v 0.55800 0.88503 0.47271
vn 0.70711 -0.25291 -0.66033
vt 1 1
f 13/13/13 14/14/14 15/15/15
usemtl rubber
v 0.45194 0.78359 0.39798
vn 0.70711 -0.25291 -0.66033
vt 0 0
v 0.55800 0.88503 0.47271
vn 0.70711 -0.25291 -0.66033
vt 1 0
v 0.55800 0.82153 0.49703
vn 0.70711 -0.25291 -0.66033
vt 1 1
f 16/16/16 17/17/17 18/18/18
usemtl rubber
v 0.55800 0.82153 0.49703
vn 0.70711 0.25291 0.66033
vt 0 0
v 0.55800 0.88503 0.47271
vn 0.70711 0.25291 0.66033
vt 1 0
v 0.52972 0.89515 0.49912
vn 0.70711 0.25291 0.66033
vt 1 1
f 19/19/19 20/20/20 21/21/21
usemtl rubber
v 0.55800 0.82153 0.49703
vn 0.70711 0.25291 0.66033
vt 0 0
v 0.52972 0.89515 0.49912
vn 0.70711 0.25291 0.66033
vt 1 0
v 0.52972 0.83164 0.52344
vn 0.70711 0.25291 0.66033
vt 1 1
f 22/22/22 23/23/23 24/24/24
usemtl rubber
v 0.42365 0.79371 0.42439
vn -0.00000 -0.93385 0.35766
vt 0 0
v 0.45194 0.78359 0.39798
vn -0.00000 -0.93385 0.35766
vt 1 0
v 0.55800 0.82153 0.49703
vn -0.00000 -0.93385 0.35766
vt 1 1
f 25/25/25 26/26/26 27/27/27
usemtl rubber
v 0.42365 0.79371 0.42439
vn -0.00000 -0.93385 0.35766
vt 0 0
v 0.55800 0.82153 0.49703
vn -0.00000 -0.93385 0.35766
vt 1 0
v 0.52972 0.83164 0.52344
vn -0.00000 -0.93385 0.35766
vt 1 1
f 28/28/28 29/29/29 30/30/30
usemtl rubber
v 0.45194 0.84709 0.37366
vn 0.00000 0.93385 -0.35766
vt 0 0
v 0.42365 0.85721 0.40007
vn 0.00000 0.93385 -0.35766
vt 1 0
v 0.52972 0.89515 0.49912
vn 0.00000 0.93385 -0.35766
vt 1 1
f 31/31/31 32/32/32 33/33/33
usemtl rubber
v 0.45194 0.84709 0.37366
vn 0.00000 0.93385 -0.35766
vt 0 0
v 0.52972 0.89515 0.49912
vn 0.00000 0.93385 -0.35766
vt 1 0
v 0.55800 0.88503 0.47271
vn 0.00000 0.93385 -0.35766
vt 1 1
f 34/34/34 35/35/35 36/36/36
usemtl letters
v 0.47639 0.88042 0.42872
vn -0.70711 0.25291 0.66033
vt 0 0
v 0.47639 0.88883 0.42550
vn -0.70711 0.25291 0.66033
vt 1 0
v 0.45659 0.88175 0.40701
vn -0.70711 0.25291 0.66033
vt 1 1
f 37/37/37 38/38/38 39/39/39
usemtl letters
v 0.47639 0.88042 0.42872
vn -0.70711 0.25291 0.66033
vt 0 0
v 0.45659 0.88175 0.40701
vn -0.70711 0.25291 0.66033
vt 1 0
v 0.45659 0.87334 0.41023
vn -0.70711 0.25291 0.66033
vt 1 1
f 40/40/40 41/41/41 42/42/42
usemtl letters
v 0.45659 0.87334 0.41023
vn -0.70712 -0.25291 -0.66032
vt 0 0
v 0.45659 0.88175 0.40701
vn -0.70712 -0.25291 -0.66032
vt 1 0
v 0.46719 0.87795 0.39711
vn -0.70712 -0.25291 -0.66032
vt 1 1
f 43/43/43 44/44/44 45/45/45
usemtl letters
v 0.45659 0.87334 0.41023
vn -0.70712 -0.25291 -0.66032
vt 0 0
v 0.46719 0.87795 0.39711
vn -0.70712 -0.25291 -0.66032
vt 1 0
v 0.46719 0.86955 0.40032
vn -0.70712 -0.25291 -0.66032
vt 1 1
f 46/46/46 47/47/47 48/48/48
usemtl letters
v 0.46719 0.86955 0.40032
vn 0.70711 -0.25291 -0.66033
vt 0 0
v 0.46719 0.87795 0.39711
vn 0.70711 -0.25291 -0.66033
vt 1 0
v 0.48699 0.88504 0.41559
vn 0.70711 -0.25291 -0.66033
vt 1 1
f 49/49/49 50/50/50 51/51/51
usemtl letters
v 0.46719 0.86955 0.40032
vn 0.70711 -0.25291 -0.66033
vt 0 0
v 0.48699 0.88504 0.41559
vn 0.70711 -0.25291 -0.66033
vt 1 0
v 0.48699 0.87663 0.41881
vn 0.70711 -0.25291 -0.66033
vt 1 1
f 52/52/52 53/53/53 54/54/54
usemtl letters
v 0.48699 0.87663 0.41881
vn 0.70711 0.25291 0.66033
vt 0 0
v 0.48699 0.88504 0.41559
vn 0.70711 0.25291 0.66033
vt 1 0
v 0.47639 0.88883 0.42550
vn 0.70711 0.25291 0.66033
vt 1 1
f 55/55/55 56/56/56 57/57/57
usemtl letters
v 0.48699 0.87663 0.41881
vn 0.70711 0.25291 0.66033
vt 0 0
v 0.47639 0.88883 0.42550
vn 0.70711 0.25291 0.66033
vt 1 0
v 0.47639 0.88042 0.42872
vn 0.70711 0.25291 0.66033
vt 1 1
f 58/58/58 59/59/59 60/60/60
usemtl letters
v 0.45659 0.87334 0.41023
vn 0.00000 -0.93385 0.35767
vt 0 0
v 0.46719 0.86955 0.40032
vn 0.00000 -0.93385 0.35767
vt 1 0
v 0.48699 0.87663 0.41881
vn 0.00000 -0.93385 0.35767
vt 1 1
f 61/61/61 62/62/62 63/63/63
usemtl letters
v 0.45659 0.87334 0.41023
vn 0.00000 -0.93385 0.35767
vt 0 0
v 0.48699 0.87663 0.41881
vn 0.00000 -0.93385 0.35767
vt 1 0
v 0.47639 0.88042 0.42872
vn 0.00000 -0.93385 0.35767
vt 1 1
f 64/64/64 65/65/65 66/66/66
usemtl letters
v 0.46719 0.87795 0.39711
vn 0.00000 0.93385 -0.35766
vt 0 0
v 0.45659 0.88175 0.40701
vn 0.00000 0.93385 -0.35766
vt 1 0
v 0.47639 0.88883 0.42550
vn 0.00000 0.93385 -0.35766
vt 1 1
f 67/67/67 68/68/68 69/69/69
usemtl letters
v 0.46719 0.87795 0.39711
vn 0.00000 0.93385 -0.35766
vt 0 0
v 0.47639 0.88883 0.42550
vn 0.00000 0.93385 -0.35766
vt 1 0
v 0.48699 0.88504 0.41559
vn 0.00000 0.93385 -0.35766
vt 1 1
f 70/70/70 71/71/71 72/72/72
