# Approved Blender production mesh; block units
mtllib approved.mtl
g Continuous_watertight_skin
usemtl paint
v 0.00000 0.00000 0.39062
vn -1.00000 0.00000 0.00000
vt 0 0
v 0.00000 0.00000 0.45312
vn -1.00000 0.00000 0.00000
vt 1 0
v 0.00000 1.00000 0.45312
vn -1.00000 0.00000 0.00000
vt 1 1
f 1/1/1 2/2/2 3/3/3
v 0.00000 0.00000 0.39062
vn -1.00000 0.00000 0.00000
vt 0 0
v 0.00000 1.00000 0.45312
vn -1.00000 0.00000 0.00000
vt 1 0
v 0.00000 1.00000 0.39062
vn -1.00000 0.00000 0.00000
vt 1 1
f 4/4/4 5/5/5 6/6/6
v 0.00000 1.00000 0.39062
vn 0.00000 1.00000 0.00000
vt 0 0
v 0.00000 1.00000 0.45312
vn 0.00000 1.00000 0.00000
vt 1 0
v 1.00000 1.00000 0.45312
vn 0.00000 1.00000 0.00000
vt 1 1
f 7/7/7 8/8/8 9/9/9
v 0.00000 1.00000 0.39062
vn 0.00000 1.00000 0.00000
vt 0 0
v 1.00000 1.00000 0.45312
vn 0.00000 1.00000 0.00000
vt 1 0
v 1.00000 1.00000 0.39062
vn 0.00000 1.00000 0.00000
vt 1 1
f 10/10/10 11/11/11 12/12/12
v 1.00000 1.00000 0.39062
vn 1.00000 0.00000 0.00000
vt 0 0
v 1.00000 1.00000 0.45312
vn 1.00000 0.00000 0.00000
vt 1 0
v 1.00000 0.00000 0.45312
vn 1.00000 0.00000 0.00000
vt 1 1
f 13/13/13 14/14/14 15/15/15
v 1.00000 1.00000 0.39062
vn 1.00000 0.00000 0.00000
vt 0 0
v 1.00000 0.00000 0.45312
vn 1.00000 0.00000 0.00000
vt 1 0
v 1.00000 0.00000 0.39062
vn 1.00000 0.00000 0.00000
vt 1 1
f 16/16/16 17/17/17 18/18/18
v 1.00000 0.00000 0.39062
vn 0.00000 -1.00000 0.00000
vt 0 0
v 1.00000 0.00000 0.45312
vn 0.00000 -1.00000 0.00000
vt 1 0
v 0.00000 0.00000 0.45312
vn 0.00000 -1.00000 0.00000
vt 1 1
f 19/19/19 20/20/20 21/21/21
v 1.00000 0.00000 0.39062
vn 0.00000 -1.00000 0.00000
vt 0 0
v 0.00000 0.00000 0.45312
vn 0.00000 -1.00000 0.00000
vt 1 0
v 0.00000 0.00000 0.39062
vn 0.00000 -1.00000 0.00000
vt 1 1
f 22/22/22 23/23/23 24/24/24
v 0.00000 1.00000 0.39062
vn 0.00000 0.00000 -1.00000
vt 0 0
v 1.00000 1.00000 0.39062
vn 0.00000 0.00000 -1.00000
vt 1 0
v 1.00000 0.00000 0.39062
vn 0.00000 0.00000 -1.00000
vt 1 1
f 25/25/25 26/26/26 27/27/27
v 0.00000 1.00000 0.39062
vn 0.00000 0.00000 -1.00000
vt 0 0
v 1.00000 0.00000 0.39062
vn 0.00000 0.00000 -1.00000
vt 1 0
v 0.00000 0.00000 0.39062
vn 0.00000 0.00000 -1.00000
vt 1 1
f 28/28/28 29/29/29 30/30/30
v 1.00000 1.00000 0.45312
vn 0.00000 0.00000 1.00000
vt 0 0
v 0.00000 1.00000 0.45312
vn 0.00000 0.00000 1.00000
vt 1 0
v 0.00000 0.00000 0.45312
vn 0.00000 0.00000 1.00000
vt 1 1
f 31/31/31 32/32/32 33/33/33
v 1.00000 1.00000 0.45312
vn 0.00000 0.00000 1.00000
vt 0 0
v 0.00000 0.00000 0.45312
vn 0.00000 0.00000 1.00000
vt 1 0
v 1.00000 0.00000 0.45312
vn 0.00000 0.00000 1.00000
vt 1 1
f 34/34/34 35/35/35 36/36/36
g Vertical_steel_stiffener
usemtl edge
v 0.00000 0.00000 0.42000
vn -1.00000 0.00000 0.00000
vt 0 0
v 0.00000 0.00000 0.60000
vn -1.00000 0.00000 0.00000
vt 1 0
v 0.00000 1.00000 0.60000
vn -1.00000 0.00000 0.00000
vt 1 1
f 37/37/37 38/38/38 39/39/39
v 0.00000 0.00000 0.42000
vn -1.00000 0.00000 0.00000
vt 0 0
v 0.00000 1.00000 0.60000
vn -1.00000 0.00000 0.00000
vt 1 0
v 0.00000 1.00000 0.42000
vn -1.00000 0.00000 0.00000
vt 1 1
f 40/40/40 41/41/41 42/42/42
v 0.00000 1.00000 0.42000
vn 0.00000 1.00000 0.00000
vt 0 0
v 0.00000 1.00000 0.60000
vn 0.00000 1.00000 0.00000
vt 1 0
v 0.07000 1.00000 0.60000
vn 0.00000 1.00000 0.00000
vt 1 1
f 43/43/43 44/44/44 45/45/45
v 0.00000 1.00000 0.42000
vn 0.00000 1.00000 0.00000
vt 0 0
v 0.07000 1.00000 0.60000
vn 0.00000 1.00000 0.00000
vt 1 0
v 0.07000 1.00000 0.42000
vn 0.00000 1.00000 0.00000
vt 1 1
f 46/46/46 47/47/47 48/48/48
v 0.07000 1.00000 0.42000
vn 1.00000 0.00000 0.00000
vt 0 0
v 0.07000 1.00000 0.60000
vn 1.00000 0.00000 0.00000
vt 1 0
v 0.07000 0.00000 0.60000
vn 1.00000 0.00000 0.00000
vt 1 1
f 49/49/49 50/50/50 51/51/51
v 0.07000 1.00000 0.42000
vn 1.00000 0.00000 0.00000
vt 0 0
v 0.07000 0.00000 0.60000
vn 1.00000 0.00000 0.00000
vt 1 0
v 0.07000 0.00000 0.42000
vn 1.00000 0.00000 0.00000
vt 1 1
f 52/52/52 53/53/53 54/54/54
v 0.07000 0.00000 0.42000
vn 0.00000 -1.00000 0.00000
vt 0 0
v 0.07000 0.00000 0.60000
vn 0.00000 -1.00000 0.00000
vt 1 0
v 0.00000 0.00000 0.60000
vn 0.00000 -1.00000 0.00000
vt 1 1
f 55/55/55 56/56/56 57/57/57
v 0.07000 0.00000 0.42000
vn 0.00000 -1.00000 0.00000
vt 0 0
v 0.00000 0.00000 0.60000
vn 0.00000 -1.00000 0.00000
vt 1 0
v 0.00000 0.00000 0.42000
vn 0.00000 -1.00000 0.00000
vt 1 1
f 58/58/58 59/59/59 60/60/60
v 0.00000 1.00000 0.42000
vn 0.00000 0.00000 -1.00000
vt 0 0
v 0.07000 1.00000 0.42000
vn 0.00000 0.00000 -1.00000
vt 1 0
v 0.07000 0.00000 0.42000
vn 0.00000 0.00000 -1.00000
vt 1 1
f 61/61/61 62/62/62 63/63/63
v 0.00000 1.00000 0.42000
vn 0.00000 0.00000 -1.00000
vt 0 0
v 0.07000 0.00000 0.42000
vn 0.00000 0.00000 -1.00000
vt 1 0
v 0.00000 0.00000 0.42000
vn 0.00000 0.00000 -1.00000
vt 1 1
f 64/64/64 65/65/65 66/66/66
v 0.07000 1.00000 0.60000
vn 0.00000 0.00000 1.00000
vt 0 0
v 0.00000 1.00000 0.60000
vn 0.00000 0.00000 1.00000
vt 1 0
v 0.00000 0.00000 0.60000
vn 0.00000 0.00000 1.00000
vt 1 1
f 67/67/67 68/68/68 69/69/69
v 0.07000 1.00000 0.60000
vn 0.00000 0.00000 1.00000
vt 0 0
v 0.00000 0.00000 0.60000
vn 0.00000 0.00000 1.00000
vt 1 0
v 0.07000 0.00000 0.60000
vn 0.00000 0.00000 1.00000
vt 1 1
f 70/70/70 71/71/71 72/72/72
g Vertical_steel_stiffener.001
usemtl edge
v 0.93000 0.00000 0.42000
vn -1.00000 0.00000 0.00000
vt 0 0
v 0.93000 0.00000 0.60000
vn -1.00000 0.00000 0.00000
vt 1 0
v 0.93000 1.00000 0.60000
vn -1.00000 0.00000 0.00000
vt 1 1
f 73/73/73 74/74/74 75/75/75
v 0.93000 0.00000 0.42000
vn -1.00000 0.00000 0.00000
vt 0 0
v 0.93000 1.00000 0.60000
vn -1.00000 0.00000 0.00000
vt 1 0
v 0.93000 1.00000 0.42000
vn -1.00000 0.00000 0.00000
vt 1 1
f 76/76/76 77/77/77 78/78/78
v 0.93000 1.00000 0.42000
vn 0.00000 1.00000 0.00000
vt 0 0
v 0.93000 1.00000 0.60000
vn 0.00000 1.00000 0.00000
vt 1 0
v 1.00000 1.00000 0.60000
vn 0.00000 1.00000 0.00000
vt 1 1
f 79/79/79 80/80/80 81/81/81
v 0.93000 1.00000 0.42000
vn 0.00000 1.00000 0.00000
vt 0 0
v 1.00000 1.00000 0.60000
vn 0.00000 1.00000 0.00000
vt 1 0
v 1.00000 1.00000 0.42000
vn 0.00000 1.00000 0.00000
vt 1 1
f 82/82/82 83/83/83 84/84/84
v 1.00000 1.00000 0.42000
vn 1.00000 0.00000 0.00000
vt 0 0
v 1.00000 1.00000 0.60000
vn 1.00000 0.00000 0.00000
vt 1 0
v 1.00000 0.00000 0.60000
vn 1.00000 0.00000 0.00000
vt 1 1
f 85/85/85 86/86/86 87/87/87
v 1.00000 1.00000 0.42000
vn 1.00000 0.00000 0.00000
vt 0 0
v 1.00000 0.00000 0.60000
vn 1.00000 0.00000 0.00000
vt 1 0
v 1.00000 0.00000 0.42000
vn 1.00000 0.00000 0.00000
vt 1 1
f 88/88/88 89/89/89 90/90/90
v 1.00000 0.00000 0.42000
vn 0.00000 -1.00000 0.00000
vt 0 0
v 1.00000 0.00000 0.60000
vn 0.00000 -1.00000 0.00000
vt 1 0
v 0.93000 0.00000 0.60000
vn 0.00000 -1.00000 0.00000
vt 1 1
f 91/91/91 92/92/92 93/93/93
v 1.00000 0.00000 0.42000
vn 0.00000 -1.00000 0.00000
vt 0 0
v 0.93000 0.00000 0.60000
vn 0.00000 -1.00000 0.00000
vt 1 0
v 0.93000 0.00000 0.42000
vn 0.00000 -1.00000 0.00000
vt 1 1
f 94/94/94 95/95/95 96/96/96
v 0.93000 1.00000 0.42000
vn 0.00000 0.00000 -1.00000
vt 0 0
v 1.00000 1.00000 0.42000
vn 0.00000 0.00000 -1.00000
vt 1 0
v 1.00000 0.00000 0.42000
vn 0.00000 0.00000 -1.00000
vt 1 1
f 97/97/97 98/98/98 99/99/99
v 0.93000 1.00000 0.42000
vn 0.00000 0.00000 -1.00000
vt 0 0
v 1.00000 0.00000 0.42000
vn 0.00000 0.00000 -1.00000
vt 1 0
v 0.93000 0.00000 0.42000
vn 0.00000 0.00000 -1.00000
vt 1 1
f 100/100/100 101/101/101 102/102/102
v 1.00000 1.00000 0.60000
vn 0.00000 0.00000 1.00000
vt 0 0
v 0.93000 1.00000 0.60000
vn 0.00000 0.00000 1.00000
vt 1 0
v 0.93000 0.00000 0.60000
vn 0.00000 0.00000 1.00000
vt 1 1
f 103/103/103 104/104/104 105/105/105
v 1.00000 1.00000 0.60000
vn 0.00000 0.00000 1.00000
vt 0 0
v 0.93000 0.00000 0.60000
vn 0.00000 0.00000 1.00000
vt 1 0
v 1.00000 0.00000 0.60000
vn 0.00000 0.00000 1.00000
vt 1 1
f 106/106/106 107/107/107 108/108/108
g Horizontal_girder_web
usemtl paint
v 0.03000 0.03000 0.50750
vn -1.00000 0.00000 0.00000
vt 0 0
v 0.03000 0.03000 0.55250
vn -1.00000 0.00000 0.00000
vt 1 0
v 0.03000 0.21000 0.55250
vn -1.00000 0.00000 0.00000
vt 1 1
f 109/109/109 110/110/110 111/111/111
v 0.03000 0.03000 0.50750
vn -1.00000 0.00000 0.00000
vt 0 0
v 0.03000 0.21000 0.55250
vn -1.00000 0.00000 0.00000
vt 1 0
v 0.03000 0.21000 0.50750
vn -1.00000 0.00000 0.00000
vt 1 1
f 112/112/112 113/113/113 114/114/114
v 0.03000 0.21000 0.50750
vn 0.00000 1.00000 0.00000
vt 0 0
v 0.03000 0.21000 0.55250
vn 0.00000 1.00000 0.00000
vt 1 0
v 0.97000 0.21000 0.55250
vn 0.00000 1.00000 0.00000
vt 1 1
f 115/115/115 116/116/116 117/117/117
v 0.03000 0.21000 0.50750
vn 0.00000 1.00000 0.00000
vt 0 0
v 0.97000 0.21000 0.55250
vn 0.00000 1.00000 0.00000
vt 1 0
v 0.97000 0.21000 0.50750
vn 0.00000 1.00000 0.00000
vt 1 1
f 118/118/118 119/119/119 120/120/120
v 0.97000 0.21000 0.50750
vn 1.00000 0.00000 0.00000
vt 0 0
v 0.97000 0.21000 0.55250
vn 1.00000 0.00000 0.00000
vt 1 0
v 0.97000 0.03000 0.55250
vn 1.00000 0.00000 0.00000
vt 1 1
f 121/121/121 122/122/122 123/123/123
v 0.97000 0.21000 0.50750
vn 1.00000 0.00000 0.00000
vt 0 0
v 0.97000 0.03000 0.55250
vn 1.00000 0.00000 0.00000
vt 1 0
v 0.97000 0.03000 0.50750
vn 1.00000 0.00000 0.00000
vt 1 1
f 124/124/124 125/125/125 126/126/126
v 0.97000 0.03000 0.50750
vn 0.00000 -1.00000 0.00000
vt 0 0
v 0.97000 0.03000 0.55250
vn 0.00000 -1.00000 0.00000
vt 1 0
v 0.03000 0.03000 0.55250
vn 0.00000 -1.00000 0.00000
vt 1 1
f 127/127/127 128/128/128 129/129/129
v 0.97000 0.03000 0.50750
vn 0.00000 -1.00000 0.00000
vt 0 0
v 0.03000 0.03000 0.55250
vn 0.00000 -1.00000 0.00000
vt 1 0
v 0.03000 0.03000 0.50750
vn 0.00000 -1.00000 0.00000
vt 1 1
f 130/130/130 131/131/131 132/132/132
v 0.03000 0.21000 0.50750
vn 0.00000 0.00000 -1.00000
vt 0 0
v 0.97000 0.21000 0.50750
vn 0.00000 0.00000 -1.00000
vt 1 0
v 0.97000 0.03000 0.50750
vn 0.00000 0.00000 -1.00000
vt 1 1
f 133/133/133 134/134/134 135/135/135
v 0.03000 0.21000 0.50750
vn 0.00000 0.00000 -1.00000
vt 0 0
v 0.97000 0.03000 0.50750
vn 0.00000 0.00000 -1.00000
vt 1 0
v 0.03000 0.03000 0.50750
vn 0.00000 0.00000 -1.00000
vt 1 1
f 136/136/136 137/137/137 138/138/138
v 0.97000 0.21000 0.55250
vn 0.00000 0.00000 1.00000
vt 0 0
v 0.03000 0.21000 0.55250
vn 0.00000 0.00000 1.00000
vt 1 0
v 0.03000 0.03000 0.55250
vn 0.00000 0.00000 1.00000
vt 1 1
f 139/139/139 140/140/140 141/141/141
v 0.97000 0.21000 0.55250
vn 0.00000 0.00000 1.00000
vt 0 0
v 0.03000 0.03000 0.55250
vn 0.00000 0.00000 1.00000
vt 1 0
v 0.97000 0.03000 0.55250
vn 0.00000 0.00000 1.00000
vt 1 1
f 142/142/142 143/143/143 144/144/144
g Girder_flange
usemtl edge
v 0.00000 0.00750 0.41500
vn -1.00000 0.00000 0.00000
vt 0 0
v 0.00000 0.00750 0.66500
vn -1.00000 0.00000 0.00000
vt 1 0
v 0.00000 0.04250 0.66500
vn -1.00000 0.00000 0.00000
vt 1 1
f 145/145/145 146/146/146 147/147/147
v 0.00000 0.00750 0.41500
vn -1.00000 0.00000 0.00000
vt 0 0
v 0.00000 0.04250 0.66500
vn -1.00000 0.00000 0.00000
vt 1 0
v 0.00000 0.04250 0.41500
vn -1.00000 0.00000 0.00000
vt 1 1
f 148/148/148 149/149/149 150/150/150
v 0.00000 0.04250 0.41500
vn 0.00000 1.00000 0.00000
vt 0 0
v 0.00000 0.04250 0.66500
vn 0.00000 1.00000 0.00000
vt 1 0
v 1.00000 0.04250 0.66500
vn 0.00000 1.00000 0.00000
vt 1 1
f 151/151/151 152/152/152 153/153/153
v 0.00000 0.04250 0.41500
vn 0.00000 1.00000 0.00000
vt 0 0
v 1.00000 0.04250 0.66500
vn 0.00000 1.00000 0.00000
vt 1 0
v 1.00000 0.04250 0.41500
vn 0.00000 1.00000 0.00000
vt 1 1
f 154/154/154 155/155/155 156/156/156
v 1.00000 0.04250 0.41500
vn 1.00000 0.00000 0.00000
vt 0 0
v 1.00000 0.04250 0.66500
vn 1.00000 0.00000 0.00000
vt 1 0
v 1.00000 0.00750 0.66500
vn 1.00000 0.00000 0.00000
vt 1 1
f 157/157/157 158/158/158 159/159/159
v 1.00000 0.04250 0.41500
vn 1.00000 0.00000 0.00000
vt 0 0
v 1.00000 0.00750 0.66500
vn 1.00000 0.00000 0.00000
vt 1 0
v 1.00000 0.00750 0.41500
vn 1.00000 0.00000 0.00000
vt 1 1
f 160/160/160 161/161/161 162/162/162
v 1.00000 0.00750 0.41500
vn 0.00000 -1.00000 0.00000
vt 0 0
v 1.00000 0.00750 0.66500
vn 0.00000 -1.00000 0.00000
vt 1 0
v 0.00000 0.00750 0.66500
vn 0.00000 -1.00000 0.00000
vt 1 1
f 163/163/163 164/164/164 165/165/165
v 1.00000 0.00750 0.41500
vn 0.00000 -1.00000 0.00000
vt 0 0
v 0.00000 0.00750 0.66500
vn 0.00000 -1.00000 0.00000
vt 1 0
v 0.00000 0.00750 0.41500
vn 0.00000 -1.00000 0.00000
vt 1 1
f 166/166/166 167/167/167 168/168/168
v 0.00000 0.04250 0.41500
vn 0.00000 0.00000 -1.00000
vt 0 0
v 1.00000 0.04250 0.41500
vn 0.00000 0.00000 -1.00000
vt 1 0
v 1.00000 0.00750 0.41500
vn 0.00000 0.00000 -1.00000
vt 1 1
f 169/169/169 170/170/170 171/171/171
v 0.00000 0.04250 0.41500
vn 0.00000 0.00000 -1.00000
vt 0 0
v 1.00000 0.00750 0.41500
vn 0.00000 0.00000 -1.00000
vt 1 0
v 0.00000 0.00750 0.41500
vn 0.00000 0.00000 -1.00000
vt 1 1
f 172/172/172 173/173/173 174/174/174
v 1.00000 0.04250 0.66500
vn 0.00000 0.00000 1.00000
vt 0 0
v 0.00000 0.04250 0.66500
vn 0.00000 0.00000 1.00000
vt 1 0
v 0.00000 0.00750 0.66500
vn 0.00000 0.00000 1.00000
vt 1 1
f 175/175/175 176/176/176 177/177/177
v 1.00000 0.04250 0.66500
vn 0.00000 0.00000 1.00000
vt 0 0
v 0.00000 0.00750 0.66500
vn 0.00000 0.00000 1.00000
vt 1 0
v 1.00000 0.00750 0.66500
vn 0.00000 0.00000 1.00000
vt 1 1
f 178/178/178 179/179/179 180/180/180
g Girder_flange.001
usemtl edge
v 0.00000 0.19750 0.41500
vn -1.00000 0.00000 0.00000
vt 0 0
v 0.00000 0.19750 0.66500
vn -1.00000 0.00000 0.00000
vt 1 0
v 0.00000 0.23250 0.66500
vn -1.00000 0.00000 0.00000
vt 1 1
f 181/181/181 182/182/182 183/183/183
v 0.00000 0.19750 0.41500
vn -1.00000 0.00000 0.00000
vt 0 0
v 0.00000 0.23250 0.66500
vn -1.00000 0.00000 0.00000
vt 1 0
v 0.00000 0.23250 0.41500
vn -1.00000 0.00000 0.00000
vt 1 1
f 184/184/184 185/185/185 186/186/186
v 0.00000 0.23250 0.41500
vn 0.00000 1.00000 0.00000
vt 0 0
v 0.00000 0.23250 0.66500
vn 0.00000 1.00000 0.00000
vt 1 0
v 1.00000 0.23250 0.66500
vn 0.00000 1.00000 0.00000
vt 1 1
f 187/187/187 188/188/188 189/189/189
v 0.00000 0.23250 0.41500
vn 0.00000 1.00000 0.00000
vt 0 0
v 1.00000 0.23250 0.66500
vn 0.00000 1.00000 0.00000
vt 1 0
v 1.00000 0.23250 0.41500
vn 0.00000 1.00000 0.00000
vt 1 1
f 190/190/190 191/191/191 192/192/192
v 1.00000 0.23250 0.41500
vn 1.00000 0.00000 0.00000
vt 0 0
v 1.00000 0.23250 0.66500
vn 1.00000 0.00000 0.00000
vt 1 0
v 1.00000 0.19750 0.66500
vn 1.00000 0.00000 0.00000
vt 1 1
f 193/193/193 194/194/194 195/195/195
v 1.00000 0.23250 0.41500
vn 1.00000 0.00000 0.00000
vt 0 0
v 1.00000 0.19750 0.66500
vn 1.00000 0.00000 0.00000
vt 1 0
v 1.00000 0.19750 0.41500
vn 1.00000 0.00000 0.00000
vt 1 1
f 196/196/196 197/197/197 198/198/198
v 1.00000 0.19750 0.41500
vn 0.00000 -1.00000 0.00000
vt 0 0
v 1.00000 0.19750 0.66500
vn 0.00000 -1.00000 0.00000
vt 1 0
v 0.00000 0.19750 0.66500
vn 0.00000 -1.00000 0.00000
vt 1 1
f 199/199/199 200/200/200 201/201/201
v 1.00000 0.19750 0.41500
vn 0.00000 -1.00000 0.00000
vt 0 0
v 0.00000 0.19750 0.66500
vn 0.00000 -1.00000 0.00000
vt 1 0
v 0.00000 0.19750 0.41500
vn 0.00000 -1.00000 0.00000
vt 1 1
f 202/202/202 203/203/203 204/204/204
v 0.00000 0.23250 0.41500
vn 0.00000 0.00000 -1.00000
vt 0 0
v 1.00000 0.23250 0.41500
vn 0.00000 0.00000 -1.00000
vt 1 0
v 1.00000 0.19750 0.41500
vn 0.00000 0.00000 -1.00000
vt 1 1
f 205/205/205 206/206/206 207/207/207
v 0.00000 0.23250 0.41500
vn 0.00000 0.00000 -1.00000
vt 0 0
v 1.00000 0.19750 0.41500
vn 0.00000 0.00000 -1.00000
vt 1 0
v 0.00000 0.19750 0.41500
vn 0.00000 0.00000 -1.00000
vt 1 1
f 208/208/208 209/209/209 210/210/210
v 1.00000 0.23250 0.66500
vn 0.00000 0.00000 1.00000
vt 0 0
v 0.00000 0.23250 0.66500
vn 0.00000 0.00000 1.00000
vt 1 0
v 0.00000 0.19750 0.66500
vn 0.00000 0.00000 1.00000
vt 1 1
f 211/211/211 212/212/212 213/213/213
v 1.00000 0.23250 0.66500
vn 0.00000 0.00000 1.00000
vt 0 0
v 0.00000 0.19750 0.66500
vn 0.00000 0.00000 1.00000
vt 1 0
v 1.00000 0.19750 0.66500
vn 0.00000 0.00000 1.00000
vt 1 1
f 214/214/214 215/215/215 216/216/216
g Diagonal_brace
usemtl edge
v 0.13301 0.21331 0.59250
vn -0.70711 -0.70711 0.00000
vt 0 0
v 0.13301 0.21331 0.62750
vn -0.70711 -0.70711 0.00000
vt 1 0
v 0.10331 0.24301 0.62750
vn -0.70711 -0.70711 0.00000
vt 1 1
f 217/217/217 218/218/218 219/219/219
v 0.13301 0.21331 0.59250
vn -0.70711 -0.70711 0.00000
vt 0 0
v 0.10331 0.24301 0.62750
vn -0.70711 -0.70711 0.00000
vt 1 0
v 0.10331 0.24301 0.59250
vn -0.70711 -0.70711 0.00000
vt 1 1
f 220/220/220 221/221/221 222/222/222
v 0.10331 0.24301 0.59250
vn -0.70711 0.70711 0.00000
vt 0 0
v 0.10331 0.24301 0.62750
vn -0.70711 0.70711 0.00000
vt 1 0
v 0.86699 1.00669 0.62750
vn -0.70711 0.70711 0.00000
vt 1 1
f 223/223/223 224/224/224 225/225/225
v 0.10331 0.24301 0.59250
vn -0.70711 0.70711 0.00000
vt 0 0
v 0.86699 1.00669 0.62750
vn -0.70711 0.70711 0.00000
vt 1 0
v 0.86699 1.00669 0.59250
vn -0.70711 0.70711 0.00000
vt 1 1
f 226/226/226 227/227/227 228/228/228
v 0.86699 1.00669 0.59250
vn 0.70711 0.70711 0.00000
vt 0 0
v 0.86699 1.00669 0.62750
vn 0.70711 0.70711 0.00000
vt 1 0
v 0.89669 0.97699 0.62750
vn 0.70711 0.70711 0.00000
vt 1 1
f 229/229/229 230/230/230 231/231/231
v 0.86699 1.00669 0.59250
vn 0.70711 0.70711 0.00000
vt 0 0
v 0.89669 0.97699 0.62750
vn 0.70711 0.70711 0.00000
vt 1 0
v 0.89669 0.97699 0.59250
vn 0.70711 0.70711 0.00000
vt 1 1
f 232/232/232 233/233/233 234/234/234
v 0.89669 0.97699 0.59250
vn 0.70711 -0.70711 0.00000
vt 0 0
v 0.89669 0.97699 0.62750
vn 0.70711 -0.70711 0.00000
vt 1 0
v 0.13301 0.21331 0.62750
vn 0.70711 -0.70711 0.00000
vt 1 1
f 235/235/235 236/236/236 237/237/237
v 0.89669 0.97699 0.59250
vn 0.70711 -0.70711 0.00000
vt 0 0
v 0.13301 0.21331 0.62750
vn 0.70711 -0.70711 0.00000
vt 1 0
v 0.13301 0.21331 0.59250
vn 0.70711 -0.70711 0.00000
vt 1 1
f 238/238/238 239/239/239 240/240/240
v 0.10331 0.24301 0.59250
vn 0.00000 0.00000 -1.00000
vt 0 0
v 0.86699 1.00669 0.59250
vn 0.00000 0.00000 -1.00000
vt 1 0
v 0.89669 0.97699 0.59250
vn 0.00000 0.00000 -1.00000
vt 1 1
f 241/241/241 242/242/242 243/243/243
v 0.10331 0.24301 0.59250
vn 0.00000 0.00000 -1.00000
vt 0 0
v 0.89669 0.97699 0.59250
vn 0.00000 0.00000 -1.00000
vt 1 0
v 0.13301 0.21331 0.59250
vn 0.00000 0.00000 -1.00000
vt 1 1
f 244/244/244 245/245/245 246/246/246
v 0.86699 1.00669 0.62750
vn 0.00000 0.00000 1.00000
vt 0 0
v 0.10331 0.24301 0.62750
vn 0.00000 0.00000 1.00000
vt 1 0
v 0.13301 0.21331 0.62750
vn 0.00000 0.00000 1.00000
vt 1 1
f 247/247/247 248/248/248 249/249/249
v 0.86699 1.00669 0.62750
vn 0.00000 0.00000 1.00000
vt 0 0
v 0.13301 0.21331 0.62750
vn 0.00000 0.00000 1.00000
vt 1 0
v 0.89669 0.97699 0.62750
vn 0.00000 0.00000 1.00000
vt 1 1
f 250/250/250 251/251/251 252/252/252
g Bolt_plate
usemtl paint
v 0.03000 0.02500 0.66400
vn -1.00000 0.00000 0.00000
vt 0 0
v 0.03000 0.02500 0.67600
vn -1.00000 0.00000 0.00000
vt 1 0
v 0.03000 0.21500 0.67600
vn -1.00000 0.00000 0.00000
vt 1 1
f 253/253/253 254/254/254 255/255/255
v 0.03000 0.02500 0.66400
vn -1.00000 0.00000 0.00000
vt 0 0
v 0.03000 0.21500 0.67600
vn -1.00000 0.00000 0.00000
vt 1 0
v 0.03000 0.21500 0.66400
vn -1.00000 0.00000 0.00000
vt 1 1
f 256/256/256 257/257/257 258/258/258
v 0.03000 0.21500 0.66400
vn 0.00000 1.00000 0.00000
vt 0 0
v 0.03000 0.21500 0.67600
vn 0.00000 1.00000 0.00000
vt 1 0
v 0.15000 0.21500 0.67600
vn 0.00000 1.00000 0.00000
vt 1 1
f 259/259/259 260/260/260 261/261/261
v 0.03000 0.21500 0.66400
vn 0.00000 1.00000 0.00000
vt 0 0
v 0.15000 0.21500 0.67600
vn 0.00000 1.00000 0.00000
vt 1 0
v 0.15000 0.21500 0.66400
vn 0.00000 1.00000 0.00000
vt 1 1
f 262/262/262 263/263/263 264/264/264
v 0.15000 0.21500 0.66400
vn 1.00000 0.00000 0.00000
vt 0 0
v 0.15000 0.21500 0.67600
vn 1.00000 0.00000 0.00000
vt 1 0
v 0.15000 0.02500 0.67600
vn 1.00000 0.00000 0.00000
vt 1 1
f 265/265/265 266/266/266 267/267/267
v 0.15000 0.21500 0.66400
vn 1.00000 0.00000 0.00000
vt 0 0
v 0.15000 0.02500 0.67600
vn 1.00000 0.00000 0.00000
vt 1 0
v 0.15000 0.02500 0.66400
vn 1.00000 0.00000 0.00000
vt 1 1
f 268/268/268 269/269/269 270/270/270
v 0.15000 0.02500 0.66400
vn 0.00000 -1.00000 0.00000
vt 0 0
v 0.15000 0.02500 0.67600
vn 0.00000 -1.00000 0.00000
vt 1 0
v 0.03000 0.02500 0.67600
vn 0.00000 -1.00000 0.00000
vt 1 1
f 271/271/271 272/272/272 273/273/273
v 0.15000 0.02500 0.66400
vn 0.00000 -1.00000 0.00000
vt 0 0
v 0.03000 0.02500 0.67600
vn 0.00000 -1.00000 0.00000
vt 1 0
v 0.03000 0.02500 0.66400
vn 0.00000 -1.00000 0.00000
vt 1 1
f 274/274/274 275/275/275 276/276/276
v 0.03000 0.21500 0.66400
vn 0.00000 0.00000 -1.00000
vt 0 0
v 0.15000 0.21500 0.66400
vn 0.00000 0.00000 -1.00000
vt 1 0
v 0.15000 0.02500 0.66400
vn 0.00000 0.00000 -1.00000
vt 1 1
f 277/277/277 278/278/278 279/279/279
v 0.03000 0.21500 0.66400
vn 0.00000 0.00000 -1.00000
vt 0 0
v 0.15000 0.02500 0.66400
vn 0.00000 0.00000 -1.00000
vt 1 0
v 0.03000 0.02500 0.66400
vn 0.00000 0.00000 -1.00000
vt 1 1
f 280/280/280 281/281/281 282/282/282
v 0.15000 0.21500 0.67600
vn 0.00000 0.00000 1.00000
vt 0 0
v 0.03000 0.21500 0.67600
vn 0.00000 0.00000 1.00000
vt 1 0
v 0.03000 0.02500 0.67600
vn 0.00000 0.00000 1.00000
vt 1 1
f 283/283/283 284/284/284 285/285/285
v 0.15000 0.21500 0.67600
vn 0.00000 0.00000 1.00000
vt 0 0
v 0.03000 0.02500 0.67600
vn 0.00000 0.00000 1.00000
vt 1 0
v 0.15000 0.02500 0.67600
vn 0.00000 0.00000 1.00000
vt 1 1
f 286/286/286 287/287/287 288/288/288
g Hex_bolt
usemtl steel
v 0.09000 0.03600 0.67600
vn 0.00000 -1.00000 0.00000
vt 0 0
v 0.09000 0.03600 0.69300
vn 0.00000 -1.00000 0.00000
vt 1 0
v 0.07355 0.04550 0.69300
vn -0.86603 -0.50000 0.00000
vt 1 1
f 289/289/289 290/290/290 291/291/291
v 0.09000 0.03600 0.67600
vn 0.00000 -1.00000 0.00000
vt 0 0
v 0.07355 0.04550 0.69300
vn -0.86603 -0.50000 0.00000
vt 1 0
v 0.07355 0.04550 0.67600
vn -0.86603 -0.50000 0.00000
vt 1 1
f 292/292/292 293/293/293 294/294/294
v 0.07355 0.04550 0.67600
vn -0.86603 -0.50000 0.00000
vt 0 0
v 0.07355 0.04550 0.69300
vn -0.86603 -0.50000 0.00000
vt 1 0
v 0.07355 0.06450 0.69300
vn -0.86603 0.50000 0.00000
vt 1 1
f 295/295/295 296/296/296 297/297/297
v 0.07355 0.04550 0.67600
vn -0.86603 -0.50000 0.00000
vt 0 0
v 0.07355 0.06450 0.69300
vn -0.86603 0.50000 0.00000
vt 1 0
v 0.07355 0.06450 0.67600
vn -0.86603 0.50000 0.00000
vt 1 1
f 298/298/298 299/299/299 300/300/300
v 0.07355 0.06450 0.67600
vn -0.86603 0.50000 0.00000
vt 0 0
v 0.07355 0.06450 0.69300
vn -0.86603 0.50000 0.00000
vt 1 0
v 0.09000 0.07400 0.69300
vn -0.00000 1.00000 0.00000
vt 1 1
f 301/301/301 302/302/302 303/303/303
v 0.07355 0.06450 0.67600
vn -0.86603 0.50000 0.00000
vt 0 0
v 0.09000 0.07400 0.69300
vn -0.00000 1.00000 0.00000
vt 1 0
v 0.09000 0.07400 0.67600
vn -0.00000 1.00000 0.00000
vt 1 1
f 304/304/304 305/305/305 306/306/306
v 0.09000 0.07400 0.67600
vn -0.00000 1.00000 0.00000
vt 0 0
v 0.09000 0.07400 0.69300
vn -0.00000 1.00000 0.00000
vt 1 0
v 0.10645 0.06450 0.69300
vn 0.86603 0.50000 0.00000
vt 1 1
f 307/307/307 308/308/308 309/309/309
v 0.09000 0.07400 0.67600
vn -0.00000 1.00000 0.00000
vt 0 0
v 0.10645 0.06450 0.69300
vn 0.86603 0.50000 0.00000
vt 1 0
v 0.10645 0.06450 0.67600
vn 0.86603 0.50000 0.00000
vt 1 1
f 310/310/310 311/311/311 312/312/312
v 0.07355 0.06450 0.69300
vn 0.00000 0.00000 1.00000
vt 0 0
v 0.07355 0.04550 0.69300
vn 0.00000 0.00000 1.00000
vt 1 0
v 0.09000 0.03600 0.69300
vn 0.00000 0.00000 1.00000
vt 1 1
f 313/313/313 314/314/314 315/315/315
v 0.09000 0.03600 0.69300
vn 0.00000 0.00000 1.00000
vt 0 0
v 0.10645 0.04550 0.69300
vn 0.00000 0.00000 1.00000
vt 1 0
v 0.10645 0.06450 0.69300
vn 0.00000 0.00000 1.00000
vt 1 1
f 316/316/316 317/317/317 318/318/318
v 0.10645 0.06450 0.69300
vn 0.00000 0.00000 1.00000
vt 0 0
v 0.09000 0.07400 0.69300
vn 0.00000 0.00000 1.00000
vt 1 0
v 0.07355 0.06450 0.69300
vn 0.00000 0.00000 1.00000
vt 1 1
f 319/319/319 320/320/320 321/321/321
v 0.09000 0.03600 0.69300
vn 0.00000 0.00000 1.00000
vt 0 0
v 0.10645 0.06450 0.69300
vn 0.00000 0.00000 1.00000
vt 1 0
v 0.07355 0.06450 0.69300
vn 0.00000 0.00000 1.00000
vt 1 1
f 322/322/322 323/323/323 324/324/324
v 0.10645 0.06450 0.67600
vn 0.86603 0.50000 0.00000
vt 0 0
v 0.10645 0.06450 0.69300
vn 0.86603 0.50000 0.00000
vt 1 0
v 0.10645 0.04550 0.69300
vn 0.86603 -0.50000 0.00000
vt 1 1
f 325/325/325 326/326/326 327/327/327
v 0.10645 0.06450 0.67600
vn 0.86603 0.50000 0.00000
vt 0 0
v 0.10645 0.04550 0.69300
vn 0.86603 -0.50000 0.00000
vt 1 0
v 0.10645 0.04550 0.67600
vn 0.86603 -0.50000 0.00000
vt 1 1
f 328/328/328 329/329/329 330/330/330
v 0.10645 0.04550 0.67600
vn 0.86603 -0.50000 0.00000
vt 0 0
v 0.10645 0.04550 0.69300
vn 0.86603 -0.50000 0.00000
vt 1 0
v 0.09000 0.03600 0.69300
vn 0.00000 -1.00000 0.00000
vt 1 1
f 331/331/331 332/332/332 333/333/333
v 0.10645 0.04550 0.67600
vn 0.86603 -0.50000 0.00000
vt 0 0
v 0.09000 0.03600 0.69300
vn 0.00000 -1.00000 0.00000
vt 1 0
v 0.09000 0.03600 0.67600
vn 0.00000 -1.00000 0.00000
vt 1 1
f 334/334/334 335/335/335 336/336/336
v 0.10645 0.04550 0.67600
vn 0.00000 0.00000 -1.00000
vt 0 0
v 0.09000 0.03600 0.67600
vn 0.00000 0.00000 -1.00000
vt 1 0
v 0.07355 0.04550 0.67600
vn 0.00000 0.00000 -1.00000
vt 1 1
f 337/337/337 338/338/338 339/339/339
v 0.07355 0.04550 0.67600
vn 0.00000 0.00000 -1.00000
vt 0 0
v 0.07355 0.06450 0.67600
vn 0.00000 0.00000 -1.00000
vt 1 0
v 0.09000 0.07400 0.67600
vn 0.00000 0.00000 -1.00000
vt 1 1
f 340/340/340 341/341/341 342/342/342
v 0.09000 0.07400 0.67600
vn 0.00000 0.00000 -1.00000
vt 0 0
v 0.10645 0.06450 0.67600
vn 0.00000 0.00000 -1.00000
vt 1 0
v 0.10645 0.04550 0.67600
vn 0.00000 0.00000 -1.00000
vt 1 1
f 343/343/343 344/344/344 345/345/345
v 0.07355 0.04550 0.67600
vn 0.00000 0.00000 -1.00000
vt 0 0
v 0.09000 0.07400 0.67600
vn 0.00000 0.00000 -1.00000
vt 1 0
v 0.10645 0.04550 0.67600
vn 0.00000 0.00000 -1.00000
vt 1 1
f 346/346/346 347/347/347 348/348/348
g Hex_bolt.001
usemtl steel
v 0.09000 0.16600 0.67600
vn 0.00000 -1.00000 0.00000
vt 0 0
v 0.09000 0.16600 0.69300
vn 0.00000 -1.00000 0.00000
vt 1 0
v 0.07355 0.17550 0.69300
vn -0.86603 -0.50000 0.00000
vt 1 1
f 349/349/349 350/350/350 351/351/351
v 0.09000 0.16600 0.67600
vn 0.00000 -1.00000 0.00000
vt 0 0
v 0.07355 0.17550 0.69300
vn -0.86603 -0.50000 0.00000
vt 1 0
v 0.07355 0.17550 0.67600
vn -0.86603 -0.50000 0.00000
vt 1 1
f 352/352/352 353/353/353 354/354/354
v 0.07355 0.17550 0.67600
vn -0.86603 -0.50000 0.00000
vt 0 0
v 0.07355 0.17550 0.69300
vn -0.86603 -0.50000 0.00000
vt 1 0
v 0.07355 0.19450 0.69300
vn -0.86603 0.50000 0.00000
vt 1 1
f 355/355/355 356/356/356 357/357/357
v 0.07355 0.17550 0.67600
vn -0.86603 -0.50000 0.00000
vt 0 0
v 0.07355 0.19450 0.69300
vn -0.86603 0.50000 0.00000
vt 1 0
v 0.07355 0.19450 0.67600
vn -0.86603 0.50000 0.00000
vt 1 1
f 358/358/358 359/359/359 360/360/360
v 0.07355 0.19450 0.67600
vn -0.86603 0.50000 0.00000
vt 0 0
v 0.07355 0.19450 0.69300
vn -0.86603 0.50000 0.00000
vt 1 0
v 0.09000 0.20400 0.69300
vn -0.00000 1.00000 0.00000
vt 1 1
f 361/361/361 362/362/362 363/363/363
v 0.07355 0.19450 0.67600
vn -0.86603 0.50000 0.00000
vt 0 0
v 0.09000 0.20400 0.69300
vn -0.00000 1.00000 0.00000
vt 1 0
v 0.09000 0.20400 0.67600
vn -0.00000 1.00000 0.00000
vt 1 1
f 364/364/364 365/365/365 366/366/366
v 0.09000 0.20400 0.67600
vn -0.00000 1.00000 0.00000
vt 0 0
v 0.09000 0.20400 0.69300
vn -0.00000 1.00000 0.00000
vt 1 0
v 0.10645 0.19450 0.69300
vn 0.86603 0.50000 0.00000
vt 1 1
f 367/367/367 368/368/368 369/369/369
v 0.09000 0.20400 0.67600
vn -0.00000 1.00000 0.00000
vt 0 0
v 0.10645 0.19450 0.69300
vn 0.86603 0.50000 0.00000
vt 1 0
v 0.10645 0.19450 0.67600
vn 0.86603 0.50000 0.00000
vt 1 1
f 370/370/370 371/371/371 372/372/372
v 0.07355 0.19450 0.69300
vn 0.00000 0.00000 1.00000
vt 0 0
v 0.07355 0.17550 0.69300
vn 0.00000 0.00000 1.00000
vt 1 0
v 0.09000 0.16600 0.69300
vn 0.00000 0.00000 1.00000
vt 1 1
f 373/373/373 374/374/374 375/375/375
v 0.09000 0.16600 0.69300
vn 0.00000 0.00000 1.00000
vt 0 0
v 0.10645 0.17550 0.69300
vn 0.00000 0.00000 1.00000
vt 1 0
v 0.10645 0.19450 0.69300
vn 0.00000 0.00000 1.00000
vt 1 1
f 376/376/376 377/377/377 378/378/378
v 0.10645 0.19450 0.69300
vn 0.00000 0.00000 1.00000
vt 0 0
v 0.09000 0.20400 0.69300
vn 0.00000 0.00000 1.00000
vt 1 0
v 0.07355 0.19450 0.69300
vn 0.00000 0.00000 1.00000
vt 1 1
f 379/379/379 380/380/380 381/381/381
v 0.09000 0.16600 0.69300
vn 0.00000 0.00000 1.00000
vt 0 0
v 0.10645 0.19450 0.69300
vn 0.00000 0.00000 1.00000
vt 1 0
v 0.07355 0.19450 0.69300
vn 0.00000 0.00000 1.00000
vt 1 1
f 382/382/382 383/383/383 384/384/384
v 0.10645 0.19450 0.67600
vn 0.86603 0.50000 0.00000
vt 0 0
v 0.10645 0.19450 0.69300
vn 0.86603 0.50000 0.00000
vt 1 0
v 0.10645 0.17550 0.69300
vn 0.86603 -0.50000 0.00000
vt 1 1
f 385/385/385 386/386/386 387/387/387
v 0.10645 0.19450 0.67600
vn 0.86603 0.50000 0.00000
vt 0 0
v 0.10645 0.17550 0.69300
vn 0.86603 -0.50000 0.00000
vt 1 0
v 0.10645 0.17550 0.67600
vn 0.86603 -0.50000 0.00000
vt 1 1
f 388/388/388 389/389/389 390/390/390
v 0.10645 0.17550 0.67600
vn 0.86603 -0.50000 0.00000
vt 0 0
v 0.10645 0.17550 0.69300
vn 0.86603 -0.50000 0.00000
vt 1 0
v 0.09000 0.16600 0.69300
vn 0.00000 -1.00000 0.00000
vt 1 1
f 391/391/391 392/392/392 393/393/393
v 0.10645 0.17550 0.67600
vn 0.86603 -0.50000 0.00000
vt 0 0
v 0.09000 0.16600 0.69300
vn 0.00000 -1.00000 0.00000
vt 1 0
v 0.09000 0.16600 0.67600
vn 0.00000 -1.00000 0.00000
vt 1 1
f 394/394/394 395/395/395 396/396/396
v 0.10645 0.17550 0.67600
vn 0.00000 0.00000 -1.00000
vt 0 0
v 0.09000 0.16600 0.67600
vn 0.00000 0.00000 -1.00000
vt 1 0
v 0.07355 0.17550 0.67600
vn 0.00000 0.00000 -1.00000
vt 1 1
f 397/397/397 398/398/398 399/399/399
v 0.07355 0.17550 0.67600
vn 0.00000 0.00000 -1.00000
vt 0 0
v 0.07355 0.19450 0.67600
vn 0.00000 0.00000 -1.00000
vt 1 0
v 0.09000 0.20400 0.67600
vn 0.00000 0.00000 -1.00000
vt 1 1
f 400/400/400 401/401/401 402/402/402
v 0.09000 0.20400 0.67600
vn 0.00000 0.00000 -1.00000
vt 0 0
v 0.10645 0.19450 0.67600
vn 0.00000 0.00000 -1.00000
vt 1 0
v 0.10645 0.17550 0.67600
vn 0.00000 0.00000 -1.00000
vt 1 1
f 403/403/403 404/404/404 405/405/405
v 0.07355 0.17550 0.67600
vn 0.00000 0.00000 -1.00000
vt 0 0
v 0.09000 0.20400 0.67600
vn 0.00000 0.00000 -1.00000
vt 1 0
v 0.10645 0.17550 0.67600
vn 0.00000 0.00000 -1.00000
vt 1 1
f 406/406/406 407/407/407 408/408/408
g Bolt_plate.001
usemtl paint
v 0.85000 0.02500 0.66400
vn -1.00000 0.00000 0.00000
vt 0 0
v 0.85000 0.02500 0.67600
vn -1.00000 0.00000 0.00000
vt 1 0
v 0.85000 0.21500 0.67600
vn -1.00000 0.00000 0.00000
vt 1 1
f 409/409/409 410/410/410 411/411/411
v 0.85000 0.02500 0.66400
vn -1.00000 0.00000 0.00000
vt 0 0
v 0.85000 0.21500 0.67600
vn -1.00000 0.00000 0.00000
vt 1 0
v 0.85000 0.21500 0.66400
vn -1.00000 0.00000 0.00000
vt 1 1
f 412/412/412 413/413/413 414/414/414
v 0.85000 0.21500 0.66400
vn 0.00000 1.00000 0.00000
vt 0 0
v 0.85000 0.21500 0.67600
vn 0.00000 1.00000 0.00000
vt 1 0
v 0.97000 0.21500 0.67600
vn 0.00000 1.00000 0.00000
vt 1 1
f 415/415/415 416/416/416 417/417/417
v 0.85000 0.21500 0.66400
vn 0.00000 1.00000 0.00000
vt 0 0
v 0.97000 0.21500 0.67600
vn 0.00000 1.00000 0.00000
vt 1 0
v 0.97000 0.21500 0.66400
vn 0.00000 1.00000 0.00000
vt 1 1
f 418/418/418 419/419/419 420/420/420
v 0.97000 0.21500 0.66400
vn 1.00000 0.00000 0.00000
vt 0 0
v 0.97000 0.21500 0.67600
vn 1.00000 0.00000 0.00000
vt 1 0
v 0.97000 0.02500 0.67600
vn 1.00000 0.00000 0.00000
vt 1 1
f 421/421/421 422/422/422 423/423/423
v 0.97000 0.21500 0.66400
vn 1.00000 0.00000 0.00000
vt 0 0
v 0.97000 0.02500 0.67600
vn 1.00000 0.00000 0.00000
vt 1 0
v 0.97000 0.02500 0.66400
vn 1.00000 0.00000 0.00000
vt 1 1
f 424/424/424 425/425/425 426/426/426
v 0.97000 0.02500 0.66400
vn 0.00000 -1.00000 0.00000
vt 0 0
v 0.97000 0.02500 0.67600
vn 0.00000 -1.00000 0.00000
vt 1 0
v 0.85000 0.02500 0.67600
vn 0.00000 -1.00000 0.00000
vt 1 1
f 427/427/427 428/428/428 429/429/429
v 0.97000 0.02500 0.66400
vn 0.00000 -1.00000 0.00000
vt 0 0
v 0.85000 0.02500 0.67600
vn 0.00000 -1.00000 0.00000
vt 1 0
v 0.85000 0.02500 0.66400
vn 0.00000 -1.00000 0.00000
vt 1 1
f 430/430/430 431/431/431 432/432/432
v 0.85000 0.21500 0.66400
vn 0.00000 0.00000 -1.00000
vt 0 0
v 0.97000 0.21500 0.66400
vn 0.00000 0.00000 -1.00000
vt 1 0
v 0.97000 0.02500 0.66400
vn 0.00000 0.00000 -1.00000
vt 1 1
f 433/433/433 434/434/434 435/435/435
v 0.85000 0.21500 0.66400
vn 0.00000 0.00000 -1.00000
vt 0 0
v 0.97000 0.02500 0.66400
vn 0.00000 0.00000 -1.00000
vt 1 0
v 0.85000 0.02500 0.66400
vn 0.00000 0.00000 -1.00000
vt 1 1
f 436/436/436 437/437/437 438/438/438
v 0.97000 0.21500 0.67600
vn 0.00000 0.00000 1.00000
vt 0 0
v 0.85000 0.21500 0.67600
vn 0.00000 0.00000 1.00000
vt 1 0
v 0.85000 0.02500 0.67600
vn 0.00000 0.00000 1.00000
vt 1 1
f 439/439/439 440/440/440 441/441/441
v 0.97000 0.21500 0.67600
vn 0.00000 0.00000 1.00000
vt 0 0
v 0.85000 0.02500 0.67600
vn 0.00000 0.00000 1.00000
vt 1 0
v 0.97000 0.02500 0.67600
vn 0.00000 0.00000 1.00000
vt 1 1
f 442/442/442 443/443/443 444/444/444
g Hex_bolt.002
usemtl steel
v 0.91000 0.03600 0.67600
vn 0.00000 -1.00000 0.00000
vt 0 0
v 0.91000 0.03600 0.69300
vn 0.00000 -1.00000 0.00000
vt 1 0
v 0.89355 0.04550 0.69300
vn -0.86603 -0.50000 0.00000
vt 1 1
f 445/445/445 446/446/446 447/447/447
v 0.91000 0.03600 0.67600
vn 0.00000 -1.00000 0.00000
vt 0 0
v 0.89355 0.04550 0.69300
vn -0.86603 -0.50000 0.00000
vt 1 0
v 0.89355 0.04550 0.67600
vn -0.86603 -0.50000 0.00000
vt 1 1
f 448/448/448 449/449/449 450/450/450
v 0.89355 0.04550 0.67600
vn -0.86603 -0.50000 0.00000
vt 0 0
v 0.89355 0.04550 0.69300
vn -0.86603 -0.50000 0.00000
vt 1 0
v 0.89355 0.06450 0.69300
vn -0.86603 0.50000 0.00000
vt 1 1
f 451/451/451 452/452/452 453/453/453
v 0.89355 0.04550 0.67600
vn -0.86603 -0.50000 0.00000
vt 0 0
v 0.89355 0.06450 0.69300
vn -0.86603 0.50000 0.00000
vt 1 0
v 0.89355 0.06450 0.67600
vn -0.86603 0.50000 0.00000
vt 1 1
f 454/454/454 455/455/455 456/456/456
v 0.89355 0.06450 0.67600
vn -0.86603 0.50000 0.00000
vt 0 0
v 0.89355 0.06450 0.69300
vn -0.86603 0.50000 0.00000
vt 1 0
v 0.91000 0.07400 0.69300
vn -0.00000 1.00000 0.00000
vt 1 1
f 457/457/457 458/458/458 459/459/459
v 0.89355 0.06450 0.67600
vn -0.86603 0.50000 0.00000
vt 0 0
v 0.91000 0.07400 0.69300
vn -0.00000 1.00000 0.00000
vt 1 0
v 0.91000 0.07400 0.67600
vn -0.00000 1.00000 0.00000
vt 1 1
f 460/460/460 461/461/461 462/462/462
v 0.91000 0.07400 0.67600
vn -0.00000 1.00000 0.00000
vt 0 0
v 0.91000 0.07400 0.69300
vn -0.00000 1.00000 0.00000
vt 1 0
v 0.92645 0.06450 0.69300
vn 0.86603 0.50000 0.00000
vt 1 1
f 463/463/463 464/464/464 465/465/465
v 0.91000 0.07400 0.67600
vn -0.00000 1.00000 0.00000
vt 0 0
v 0.92645 0.06450 0.69300
vn 0.86603 0.50000 0.00000
vt 1 0
v 0.92645 0.06450 0.67600
vn 0.86603 0.50000 0.00000
vt 1 1
f 466/466/466 467/467/467 468/468/468
v 0.89355 0.06450 0.69300
vn 0.00000 0.00000 1.00000
vt 0 0
v 0.89355 0.04550 0.69300
vn 0.00000 0.00000 1.00000
vt 1 0
v 0.91000 0.03600 0.69300
vn 0.00000 0.00000 1.00000
vt 1 1
f 469/469/469 470/470/470 471/471/471
v 0.91000 0.03600 0.69300
vn 0.00000 0.00000 1.00000
vt 0 0
v 0.92645 0.04550 0.69300
vn 0.00000 0.00000 1.00000
vt 1 0
v 0.92645 0.06450 0.69300
vn 0.00000 0.00000 1.00000
vt 1 1
f 472/472/472 473/473/473 474/474/474
v 0.92645 0.06450 0.69300
vn 0.00000 0.00000 1.00000
vt 0 0
v 0.91000 0.07400 0.69300
vn 0.00000 0.00000 1.00000
vt 1 0
v 0.89355 0.06450 0.69300
vn 0.00000 0.00000 1.00000
vt 1 1
f 475/475/475 476/476/476 477/477/477
v 0.91000 0.03600 0.69300
vn 0.00000 0.00000 1.00000
vt 0 0
v 0.92645 0.06450 0.69300
vn 0.00000 0.00000 1.00000
vt 1 0
v 0.89355 0.06450 0.69300
vn 0.00000 0.00000 1.00000
vt 1 1
f 478/478/478 479/479/479 480/480/480
v 0.92645 0.06450 0.67600
vn 0.86603 0.50000 0.00000
vt 0 0
v 0.92645 0.06450 0.69300
vn 0.86603 0.50000 0.00000
vt 1 0
v 0.92645 0.04550 0.69300
vn 0.86603 -0.50000 0.00000
vt 1 1
f 481/481/481 482/482/482 483/483/483
v 0.92645 0.06450 0.67600
vn 0.86603 0.50000 0.00000
vt 0 0
v 0.92645 0.04550 0.69300
vn 0.86603 -0.50000 0.00000
vt 1 0
v 0.92645 0.04550 0.67600
vn 0.86603 -0.50000 0.00000
vt 1 1
f 484/484/484 485/485/485 486/486/486
v 0.92645 0.04550 0.67600
vn 0.86603 -0.50000 0.00000
vt 0 0
v 0.92645 0.04550 0.69300
vn 0.86603 -0.50000 0.00000
vt 1 0
v 0.91000 0.03600 0.69300
vn 0.00000 -1.00000 0.00000
vt 1 1
f 487/487/487 488/488/488 489/489/489
v 0.92645 0.04550 0.67600
vn 0.86603 -0.50000 0.00000
vt 0 0
v 0.91000 0.03600 0.69300
vn 0.00000 -1.00000 0.00000
vt 1 0
v 0.91000 0.03600 0.67600
vn 0.00000 -1.00000 0.00000
vt 1 1
f 490/490/490 491/491/491 492/492/492
v 0.92645 0.04550 0.67600
vn 0.00000 0.00000 -1.00000
vt 0 0
v 0.91000 0.03600 0.67600
vn 0.00000 0.00000 -1.00000
vt 1 0
v 0.89355 0.04550 0.67600
vn 0.00000 0.00000 -1.00000
vt 1 1
f 493/493/493 494/494/494 495/495/495
v 0.89355 0.04550 0.67600
vn 0.00000 0.00000 -1.00000
vt 0 0
v 0.89355 0.06450 0.67600
vn 0.00000 0.00000 -1.00000
vt 1 0
v 0.91000 0.07400 0.67600
vn 0.00000 0.00000 -1.00000
vt 1 1
f 496/496/496 497/497/497 498/498/498
v 0.91000 0.07400 0.67600
vn 0.00000 0.00000 -1.00000
vt 0 0
v 0.92645 0.06450 0.67600
vn 0.00000 0.00000 -1.00000
vt 1 0
v 0.92645 0.04550 0.67600
vn 0.00000 0.00000 -1.00000
vt 1 1
f 499/499/499 500/500/500 501/501/501
v 0.89355 0.04550 0.67600
vn 0.00000 0.00000 -1.00000
vt 0 0
v 0.91000 0.07400 0.67600
vn 0.00000 0.00000 -1.00000
vt 1 0
v 0.92645 0.04550 0.67600
vn 0.00000 0.00000 -1.00000
vt 1 1
f 502/502/502 503/503/503 504/504/504
g Hex_bolt.003
usemtl steel
v 0.91000 0.16600 0.67600
vn 0.00000 -1.00000 0.00000
vt 0 0
v 0.91000 0.16600 0.69300
vn 0.00000 -1.00000 0.00000
vt 1 0
v 0.89355 0.17550 0.69300
vn -0.86603 -0.50000 0.00000
vt 1 1
f 505/505/505 506/506/506 507/507/507
v 0.91000 0.16600 0.67600
vn 0.00000 -1.00000 0.00000
vt 0 0
v 0.89355 0.17550 0.69300
vn -0.86603 -0.50000 0.00000
vt 1 0
v 0.89355 0.17550 0.67600
vn -0.86603 -0.50000 0.00000
vt 1 1
f 508/508/508 509/509/509 510/510/510
v 0.89355 0.17550 0.67600
vn -0.86603 -0.50000 0.00000
vt 0 0
v 0.89355 0.17550 0.69300
vn -0.86603 -0.50000 0.00000
vt 1 0
v 0.89355 0.19450 0.69300
vn -0.86603 0.50000 0.00000
vt 1 1
f 511/511/511 512/512/512 513/513/513
v 0.89355 0.17550 0.67600
vn -0.86603 -0.50000 0.00000
vt 0 0
v 0.89355 0.19450 0.69300
vn -0.86603 0.50000 0.00000
vt 1 0
v 0.89355 0.19450 0.67600
vn -0.86603 0.50000 0.00000
vt 1 1
f 514/514/514 515/515/515 516/516/516
v 0.89355 0.19450 0.67600
vn -0.86603 0.50000 0.00000
vt 0 0
v 0.89355 0.19450 0.69300
vn -0.86603 0.50000 0.00000
vt 1 0
v 0.91000 0.20400 0.69300
vn -0.00000 1.00000 0.00000
vt 1 1
f 517/517/517 518/518/518 519/519/519
v 0.89355 0.19450 0.67600
vn -0.86603 0.50000 0.00000
vt 0 0
v 0.91000 0.20400 0.69300
vn -0.00000 1.00000 0.00000
vt 1 0
v 0.91000 0.20400 0.67600
vn -0.00000 1.00000 0.00000
vt 1 1
f 520/520/520 521/521/521 522/522/522
v 0.91000 0.20400 0.67600
vn -0.00000 1.00000 0.00000
vt 0 0
v 0.91000 0.20400 0.69300
vn -0.00000 1.00000 0.00000
vt 1 0
v 0.92645 0.19450 0.69300
vn 0.86603 0.50000 0.00000
vt 1 1
f 523/523/523 524/524/524 525/525/525
v 0.91000 0.20400 0.67600
vn -0.00000 1.00000 0.00000
vt 0 0
v 0.92645 0.19450 0.69300
vn 0.86603 0.50000 0.00000
vt 1 0
v 0.92645 0.19450 0.67600
vn 0.86603 0.50000 0.00000
vt 1 1
f 526/526/526 527/527/527 528/528/528
v 0.89355 0.19450 0.69300
vn 0.00000 0.00000 1.00000
vt 0 0
v 0.89355 0.17550 0.69300
vn 0.00000 0.00000 1.00000
vt 1 0
v 0.91000 0.16600 0.69300
vn 0.00000 0.00000 1.00000
vt 1 1
f 529/529/529 530/530/530 531/531/531
v 0.91000 0.16600 0.69300
vn 0.00000 0.00000 1.00000
vt 0 0
v 0.92645 0.17550 0.69300
vn 0.00000 0.00000 1.00000
vt 1 0
v 0.92645 0.19450 0.69300
vn 0.00000 0.00000 1.00000
vt 1 1
f 532/532/532 533/533/533 534/534/534
v 0.92645 0.19450 0.69300
vn 0.00000 0.00000 1.00000
vt 0 0
v 0.91000 0.20400 0.69300
vn 0.00000 0.00000 1.00000
vt 1 0
v 0.89355 0.19450 0.69300
vn 0.00000 0.00000 1.00000
vt 1 1
f 535/535/535 536/536/536 537/537/537
v 0.91000 0.16600 0.69300
vn 0.00000 0.00000 1.00000
vt 0 0
v 0.92645 0.19450 0.69300
vn 0.00000 0.00000 1.00000
vt 1 0
v 0.89355 0.19450 0.69300
vn 0.00000 0.00000 1.00000
vt 1 1
f 538/538/538 539/539/539 540/540/540
v 0.92645 0.19450 0.67600
vn 0.86603 0.50000 0.00000
vt 0 0
v 0.92645 0.19450 0.69300
vn 0.86603 0.50000 0.00000
vt 1 0
v 0.92645 0.17550 0.69300
vn 0.86603 -0.50000 0.00000
vt 1 1
f 541/541/541 542/542/542 543/543/543
v 0.92645 0.19450 0.67600
vn 0.86603 0.50000 0.00000
vt 0 0
v 0.92645 0.17550 0.69300
vn 0.86603 -0.50000 0.00000
vt 1 0
v 0.92645 0.17550 0.67600
vn 0.86603 -0.50000 0.00000
vt 1 1
f 544/544/544 545/545/545 546/546/546
v 0.92645 0.17550 0.67600
vn 0.86603 -0.50000 0.00000
vt 0 0
v 0.92645 0.17550 0.69300
vn 0.86603 -0.50000 0.00000
vt 1 0
v 0.91000 0.16600 0.69300
vn 0.00000 -1.00000 0.00000
vt 1 1
f 547/547/547 548/548/548 549/549/549
v 0.92645 0.17550 0.67600
vn 0.86603 -0.50000 0.00000
vt 0 0
v 0.91000 0.16600 0.69300
vn 0.00000 -1.00000 0.00000
vt 1 0
v 0.91000 0.16600 0.67600
vn 0.00000 -1.00000 0.00000
vt 1 1
f 550/550/550 551/551/551 552/552/552
v 0.92645 0.17550 0.67600
vn 0.00000 0.00000 -1.00000
vt 0 0
v 0.91000 0.16600 0.67600
vn 0.00000 0.00000 -1.00000
vt 1 0
v 0.89355 0.17550 0.67600
vn 0.00000 0.00000 -1.00000
vt 1 1
f 553/553/553 554/554/554 555/555/555
v 0.89355 0.17550 0.67600
vn 0.00000 0.00000 -1.00000
vt 0 0
v 0.89355 0.19450 0.67600
vn 0.00000 0.00000 -1.00000
vt 1 0
v 0.91000 0.20400 0.67600
vn 0.00000 0.00000 -1.00000
vt 1 1
f 556/556/556 557/557/557 558/558/558
v 0.91000 0.20400 0.67600
vn 0.00000 0.00000 -1.00000
vt 0 0
v 0.92645 0.19450 0.67600
vn 0.00000 0.00000 -1.00000
vt 1 0
v 0.92645 0.17550 0.67600
vn 0.00000 0.00000 -1.00000
vt 1 1
f 559/559/559 560/560/560 561/561/561
v 0.89355 0.17550 0.67600
vn 0.00000 0.00000 -1.00000
vt 0 0
v 0.91000 0.20400 0.67600
vn 0.00000 0.00000 -1.00000
vt 1 0
v 0.92645 0.17550 0.67600
vn 0.00000 0.00000 -1.00000
vt 1 1
f 562/562/562 563/563/563 564/564/564
